<svg width="67" height="66" viewBox="0 0 67 66" fill="none" xmlns="http://www.w3.org/2000/svg">
<path d="M3.54809 65.3494H63.4517V27.2289H3.54809V65.3494ZM28.0541 35.3976C30.1834 35.3976 32.0758 36.1328 33.4999 37.3771C34.924 36.1328 36.8164 35.3976 38.9457 35.3976C43.4493 35.3976 47.1143 39.2559 47.1143 44.0019C47.1143 51.4327 36.2173 58.6674 34.9757 59.4706L33.4999 60.4209L32.0241 59.4706C30.7797 58.6701 19.8854 51.4327 19.8854 44.0019C19.8854 39.2559 23.5504 35.3976 28.0541 35.3976ZM25.3312 44.0019C25.3312 42.2593 26.5538 40.8434 28.0541 40.8434C29.4101 40.8434 30.777 41.6847 30.777 43.5662H36.2228C36.2228 41.6847 37.5897 40.8434 38.9457 40.8434C40.446 40.8434 41.6685 42.262 41.6685 44.0019C41.6685 46.8337 37.282 51.1277 33.4999 53.8751C29.7178 51.125 25.3312 46.8337 25.3312 44.0019ZM66.1746 8.16867V21.7831H0.825195V8.16867C0.825195 3.65684 4.48204 0 8.99387 0H58.0059C62.5177 0 66.1746 3.65684 66.1746 8.16867Z" fill="#4633AF"/>
</svg>
