<svg width="69" height="66" viewBox="0 0 69 66" fill="none" xmlns="http://www.w3.org/2000/svg">
<path d="M60.0442 17.0294C61.6053 17.0294 62.8825 15.7522 62.8825 14.1912C62.8825 6.35766 56.5248 0 48.6913 0H14.6324C6.79882 0 0.441162 6.35766 0.441162 14.1912V34.0589C0.441162 41.8924 6.79882 48.2501 14.6324 48.2501H28.8236V53.9266H20.3088C18.7478 53.9266 17.4706 55.2038 17.4706 56.7648C17.4706 58.3259 18.7478 59.6031 20.3088 59.6031H31.6618C33.2228 59.6031 34.5001 58.3259 34.5001 56.7648V34.0589C34.5001 24.6643 42.1349 17.0294 51.5295 17.0294H60.0442ZM57.206 22.7059H51.5295C45.257 22.7059 40.1765 27.7864 40.1765 34.0589V53.9266C40.1765 60.1991 45.257 65.2795 51.5295 65.2795H57.206C63.4785 65.2795 68.5589 60.1991 68.5589 53.9266V34.0589C68.5589 27.7864 63.4785 22.7059 57.206 22.7059Z" fill="#4633AF"/>
</svg>
