<svg width="67" height="66" viewBox="0 0 67 66" fill="none" xmlns="http://www.w3.org/2000/svg">
<path d="M17.1625 41.6852C21.3013 42.6926 25.8785 43.3053 30.777 43.4768V65.279C25.8186 65.0666 21.2115 64.2797 17.1625 63.0354V41.6852ZM0.825195 47.651C0.825195 52.9961 5.013 57.7039 11.7168 60.9224V40.0514C7.3084 38.4504 3.57259 36.3864 0.825195 33.9249V47.651ZM36.2228 65.279C41.1811 65.0666 45.7883 64.2797 49.8372 63.0354V41.6852C45.6984 42.6926 41.1212 43.3053 36.2228 43.4768V65.279ZM55.283 60.9224C61.9868 57.7039 66.1746 52.9961 66.1746 47.651V33.9249C63.4272 36.3864 59.6914 38.4504 55.283 40.0514V60.9224ZM66.1746 23.145C66.1746 19.0443 62.5477 15.3467 56.718 12.6456L65.3032 4.73556C66.4087 3.70631 66.4714 1.97727 65.4421 0.871778C64.4183 -0.22827 62.7001 -0.296342 61.5919 0.719296L34.0417 25.9224C32.939 26.9298 31.229 26.8618 30.2106 25.7672C29.1786 24.6589 29.2494 22.9217 30.3686 21.9007L44.4568 9.04862C41.0259 8.4877 37.35 8.1664 33.4999 8.1664C15.4553 8.16912 0.825195 14.8729 0.825195 23.145C0.825195 31.4172 15.4553 38.1209 33.4999 38.1209C51.5445 38.1209 66.1746 31.4172 66.1746 23.145Z" fill="#4633AF"/>
</svg>
