<svg width="67" height="66" viewBox="0 0 67 66" fill="none" xmlns="http://www.w3.org/2000/svg">
<path d="M33.4999 43.4286C31.3526 43.4286 29.2534 42.7918 27.468 41.5988C25.6825 40.4058 24.291 38.7102 23.4692 36.7263C22.6474 34.7424 22.4324 32.5594 22.8514 30.4533C23.2703 28.3472 24.3043 26.4127 25.8227 24.8943C27.3411 23.3759 29.2757 22.3418 31.3818 21.9229C33.4879 21.504 35.6709 21.719 37.6547 22.5407C39.6386 23.3625 41.3343 24.7541 42.5273 26.5395C43.7203 28.325 44.357 30.4241 44.357 32.5714C44.357 35.4509 43.2132 38.2125 41.1771 40.2486C39.1409 42.2847 36.3794 43.4286 33.4999 43.4286ZM16.3538 43.4286H3.64275C2.92288 43.4286 2.23249 43.1426 1.72346 42.6336C1.21444 42.1245 0.928467 41.4342 0.928467 40.7143C0.954187 36.8169 2.37172 33.0569 4.9254 30.1125C7.47909 27.1681 11.0008 25.2332 14.8555 24.6566C15.3034 24.5938 15.7599 24.644 16.1835 24.8025C16.6071 24.9611 16.9843 25.2229 17.281 25.5644C17.5776 25.9058 17.7843 26.3159 17.8821 26.7575C17.9799 27.1991 17.9659 27.6581 17.8412 28.0929C17.4252 29.5494 17.2142 31.0567 17.2142 32.5714C17.215 34.9865 17.7585 37.3705 18.8048 39.5471C19.0015 39.9603 19.0907 40.4165 19.0638 40.8733C19.037 41.3302 18.8952 41.7728 18.6514 42.1601C18.4077 42.5474 18.0699 42.8668 17.6697 43.0885C17.2694 43.3103 16.8195 43.4273 16.3619 43.4286H16.3538ZM47.0713 65.1429H19.9285C19.2086 65.1429 18.5182 64.8569 18.0092 64.3479C17.5001 63.8388 17.2142 63.1484 17.2142 62.4286C17.2142 58.1093 18.93 53.967 21.9842 50.9128C25.0383 47.8587 29.1807 46.1429 33.4999 46.1429C37.8191 46.1429 41.9615 47.8587 45.0156 50.9128C48.0698 53.967 49.7856 58.1093 49.7856 62.4286C49.7856 63.1484 49.4996 63.8388 48.9906 64.3479C48.4816 64.8569 47.7912 65.1429 47.0713 65.1429ZM49.7856 21.7143C47.6383 21.7143 45.5392 21.0775 43.7537 19.8845C41.9683 18.6915 40.5767 16.9959 39.7549 15.012C38.9332 13.0281 38.7182 10.8451 39.1371 8.73902C39.556 6.63295 40.59 4.69839 42.1084 3.17999C43.6268 1.66159 45.5614 0.627547 47.6675 0.208622C49.7736 -0.210303 51.9566 0.00470419 53.9405 0.826456C55.9243 1.64821 57.62 3.03979 58.813 4.82524C60.006 6.61069 60.6427 8.70981 60.6427 10.8571C60.6427 13.7366 59.4989 16.4982 57.4628 18.5343C55.4267 20.5704 52.6651 21.7143 49.7856 21.7143ZM17.2142 21.7143C15.0668 21.7143 12.9677 21.0775 11.1823 19.8845C9.39683 18.6915 8.00524 16.9959 7.18349 15.012C6.36174 13.0281 6.14673 10.8451 6.56566 8.73902C6.98458 6.63295 8.01862 4.69839 9.53702 3.17999C11.0554 1.66159 12.99 0.627547 15.0961 0.208622C17.2021 -0.210303 19.3851 0.00470419 21.369 0.826456C23.3529 1.64821 25.0486 3.03979 26.2416 4.82524C27.4346 6.61069 28.0713 8.70981 28.0713 10.8571C28.0713 13.7366 26.9274 16.4982 24.8913 18.5343C22.8552 20.5704 20.0937 21.7143 17.2142 21.7143ZM63.357 43.4286H50.646C50.1884 43.4273 49.7386 43.3103 49.3383 43.0885C48.938 42.8668 48.6003 42.5474 48.3565 42.1601C48.1128 41.7728 47.9709 41.3302 47.9441 40.8733C47.9173 40.4165 48.0064 39.9603 48.2032 39.5471C49.2466 37.3698 49.7874 34.9859 49.7856 32.5714C49.7812 31.0561 49.5656 29.5487 49.145 28.0929C49.0196 27.6569 49.0055 27.1964 49.104 26.7535C49.2024 26.3107 49.4103 25.8995 49.7087 25.5577C50.007 25.2159 50.3862 24.9544 50.8117 24.7969C51.2372 24.6395 51.6954 24.5913 52.1443 24.6566C55.999 25.2332 59.5207 27.1681 62.0744 30.1125C64.6281 33.0569 66.0456 36.8169 66.0713 40.7143C66.0713 41.4342 65.7854 42.1245 65.2763 42.6336C64.7673 43.1426 64.0769 43.4286 63.357 43.4286Z" fill="#4633AF"/>
</svg>
