<svg width="292" height="52" viewBox="0 0 292 52" fill="none" xmlns="http://www.w3.org/2000/svg">
<path d="M188.101 44.8262C187.838 44.8282 187.583 44.9181 187.378 45.0816C187.172 45.2451 187.027 45.4728 186.966 45.7283C186.904 45.9839 186.931 46.2526 187.04 46.4915C187.149 46.7305 187.335 46.926 187.569 47.0469V48.4427H188.545V47.0908C188.797 46.9875 189.005 46.8 189.134 46.5602C189.263 46.3204 189.305 46.0433 189.253 45.776C189.201 45.5088 189.057 45.268 188.847 45.0948C188.637 44.9215 188.373 44.8266 188.101 44.8262Z" fill="#4633AF"/>
<path d="M191.961 42.0978V40.0089C191.982 38.9507 191.583 37.9273 190.851 37.1627C190.12 36.398 189.115 35.9543 188.057 35.9287C186.999 35.9543 185.994 36.398 185.262 37.1627C184.53 37.9273 184.131 38.9507 184.152 40.0089V42.0978H182.688V50.3949C182.688 50.6538 182.791 50.902 182.974 51.0851C183.157 51.2682 183.405 51.371 183.664 51.371H192.449C192.708 51.371 192.956 51.2682 193.139 51.0851C193.323 50.902 193.425 50.6538 193.425 50.3949V42.0978H191.961ZM185.128 40.0089C185.107 39.2096 185.403 38.4344 185.952 37.8528C186.501 37.2712 187.257 36.9304 188.057 36.9048C188.856 36.9304 189.612 37.2712 190.161 37.8528C190.71 38.4344 191.006 39.2096 190.985 40.0089V42.0978H185.128V40.0089ZM183.664 50.3949V43.0739H192.449V50.3949H183.664Z" fill="#4633AF"/>
<path d="M75.8563 43.0657C76.5583 43.0657 77.1565 42.8154 77.5532 42.3515L77.0405 41.8632C76.7292 42.205 76.3446 42.3698 75.8991 42.3698C75.014 42.3698 74.3731 41.7473 74.3731 40.8683C74.3731 39.9893 75.014 39.3667 75.8991 39.3667C76.3446 39.3667 76.7292 39.5315 77.0405 39.8673L77.5532 39.3851C77.1565 38.9212 76.5583 38.6709 75.8624 38.6709C74.5501 38.6709 73.5735 39.5926 73.5735 40.8683C73.5735 42.144 74.5501 43.0657 75.8563 43.0657Z" fill="#4633AF"/>
<path d="M79.586 43.0474C80.5992 43.0474 81.3256 42.3515 81.3256 41.3749C81.3256 40.3983 80.5992 39.7086 79.586 39.7086C78.585 39.7086 77.8525 40.3983 77.8525 41.3749C77.8525 42.3515 78.585 43.0474 79.586 43.0474ZM79.586 42.3943C79.0366 42.3943 78.6216 41.9975 78.6216 41.3749C78.6216 40.7523 79.0366 40.3556 79.586 40.3556C80.1415 40.3556 80.5565 40.7523 80.5565 41.3749C80.5565 41.9975 80.1415 42.3943 79.586 42.3943Z" fill="#4633AF"/>
<path d="M86.1692 39.7086C85.6504 39.7086 85.2109 39.9161 84.9484 40.2518C84.7226 39.8856 84.3258 39.7086 83.8497 39.7086C83.4042 39.7086 83.0257 39.8673 82.7816 40.1602V39.7452H82.0552V43.0047H82.8182V41.3505C82.8182 40.7035 83.16 40.3739 83.6666 40.3739C84.1305 40.3739 84.3991 40.6547 84.3991 41.2345V43.0047H85.1621V41.3505C85.1621 40.7035 85.51 40.3739 86.0105 40.3739C86.4744 40.3739 86.743 40.6547 86.743 41.2345V43.0047H87.506V41.1369C87.506 40.1541 86.9566 39.7086 86.1692 39.7086Z" fill="#4633AF"/>
<path d="M90.2877 39.7086C89.8421 39.7086 89.4637 39.8612 89.2073 40.1725V39.7452H88.481V44.1888H89.244V42.6079C89.5064 42.907 89.8727 43.0474 90.2877 43.0474C91.2399 43.0474 91.9419 42.3882 91.9419 41.3749C91.9419 40.3678 91.2399 39.7086 90.2877 39.7086ZM90.2023 42.3943C89.6529 42.3943 89.2317 41.9975 89.2317 41.3749C89.2317 40.7523 89.6529 40.3556 90.2023 40.3556C90.7516 40.3556 91.1667 40.7523 91.1667 41.3749C91.1667 41.9975 90.7516 42.3943 90.2023 42.3943Z" fill="#4633AF"/>
<path d="M93.3918 40.2213V39.7452H92.6655V43.0047H93.4284V41.4237C93.4284 40.7584 93.7947 40.4166 94.3745 40.4166C94.4295 40.4166 94.4844 40.4227 94.5516 40.4349V39.7086C94.0083 39.7086 93.6116 39.8795 93.3918 40.2213Z" fill="#4633AF"/>
<path d="M96.4261 39.7086C95.9012 39.7086 95.3946 39.8428 95.0466 40.1114L95.3457 40.6669C95.5899 40.4654 95.9683 40.3434 96.3346 40.3434C96.8778 40.3434 97.1464 40.6058 97.1464 41.0514V41.1002H96.304C95.3152 41.1002 94.949 41.5275 94.949 42.0708C94.949 42.6384 95.419 43.0474 96.1637 43.0474C96.652 43.0474 97.006 42.8887 97.1891 42.6079V43.0047H97.9094V41.0941C97.9094 40.1541 97.3661 39.7086 96.4261 39.7086ZM96.3223 42.4919C95.9317 42.4919 95.6998 42.3149 95.6998 42.0402C95.6998 41.8022 95.8401 41.6069 96.359 41.6069H97.1464V41.9853C97.0182 42.321 96.6947 42.4919 96.3223 42.4919Z" fill="#4633AF"/>
<path d="M75.2032 48.8565C76.3752 48.8565 76.9306 48.2706 76.9306 47.5869C76.9306 46.0182 74.3975 46.6103 74.3975 45.7008C74.3975 45.3773 74.6661 45.121 75.3253 45.121C75.6976 45.121 76.1188 45.2308 76.5034 45.4567L76.7536 44.8402C76.3813 44.596 75.8441 44.4618 75.3314 44.4618C74.1595 44.4618 73.6101 45.0477 73.6101 45.7375C73.6101 47.3245 76.1493 46.7202 76.1493 47.6419C76.1493 47.9593 75.8685 48.1973 75.2032 48.1973C74.6783 48.1973 74.135 48.002 73.7932 47.7273L73.5186 48.3438C73.8726 48.649 74.5379 48.8565 75.2032 48.8565Z" fill="#4633AF"/>
<path d="M80.7083 47.1841C80.7083 46.1647 80.0125 45.4994 79.0603 45.4994C78.0898 45.4994 77.3756 46.1953 77.3756 47.1658C77.3756 48.1363 78.0837 48.8382 79.1763 48.8382C79.7378 48.8382 80.1956 48.6551 80.4886 48.3072L80.0796 47.8372C79.8477 48.0753 79.5608 48.1912 79.1946 48.1912C78.6269 48.1912 78.2302 47.886 78.1386 47.4099H80.6961C80.7022 47.3367 80.7083 47.2451 80.7083 47.1841ZM79.0603 46.1098C79.5608 46.1098 79.9209 46.4333 79.982 46.9033H78.1325C78.2058 46.4272 78.5659 46.1098 79.0603 46.1098Z" fill="#4633AF"/>
<path d="M83.9499 45.536V45.9694C83.6814 45.6459 83.2785 45.4994 82.8207 45.4994C81.8868 45.4994 81.1727 46.122 81.1727 47.0681C81.1727 48.0142 81.8868 48.649 82.8207 48.649C83.2602 48.649 83.6447 48.5086 83.9133 48.2156V48.3865C83.9133 49.0458 83.5959 49.3754 82.8757 49.3754C82.424 49.3754 81.9601 49.2228 81.6732 48.9847L81.3314 49.5585C81.7037 49.8637 82.308 50.0224 82.9184 50.0224C84.0598 50.0224 84.6763 49.4852 84.6763 48.3011V45.536H83.9499ZM82.9367 48.002C82.3568 48.002 81.9418 47.6236 81.9418 47.0681C81.9418 46.5188 82.3568 46.1464 82.9367 46.1464C83.5105 46.1464 83.9255 46.5188 83.9255 47.0681C83.9255 47.6236 83.5105 48.002 82.9367 48.002Z" fill="#4633AF"/>
<path d="M88.0721 45.536V47.1841C88.0721 47.8372 87.712 48.1668 87.1809 48.1668C86.6987 48.1668 86.418 47.886 86.418 47.294V45.536H85.655V47.3977C85.655 48.3804 86.2226 48.8382 87.0589 48.8382C87.48 48.8382 87.8646 48.6795 88.1087 48.3804V48.7955H88.8351V45.536H88.0721Z" fill="#4633AF"/>
<path d="M90.5604 46.0121V45.536H89.8341V48.7955H90.5971V47.2146C90.5971 46.5493 90.9633 46.2075 91.5432 46.2075C91.5981 46.2075 91.653 46.2136 91.7202 46.2258V45.4994C91.1769 45.4994 90.7802 45.6703 90.5604 46.0121Z" fill="#4633AF"/>
<path d="M93.5947 45.4994C93.0698 45.4994 92.5632 45.6337 92.2153 45.9023L92.5143 46.4577C92.7585 46.2563 93.1369 46.1342 93.5032 46.1342C94.0464 46.1342 94.315 46.3967 94.315 46.8423V46.8911H93.4727C92.4838 46.8911 92.1176 47.3184 92.1176 47.8616C92.1176 48.4293 92.5876 48.8382 93.3323 48.8382C93.8206 48.8382 94.1746 48.6795 94.3577 48.3988V48.7955H95.078V46.885C95.078 45.945 94.5347 45.4994 93.5947 45.4994ZM93.491 48.2828C93.1003 48.2828 92.8684 48.1058 92.8684 47.8311C92.8684 47.593 93.0088 47.3977 93.5276 47.3977H94.315V47.7762C94.1868 48.1119 93.8633 48.2828 93.491 48.2828Z" fill="#4633AF"/>
<path d="M136.973 43.0662C138.144 43.0662 138.7 42.4802 138.7 41.7966C138.7 40.2279 136.167 40.82 136.167 39.9105C136.167 39.587 136.435 39.3306 137.095 39.3306C137.467 39.3306 137.888 39.4405 138.273 39.6663L138.523 39.0498C138.151 38.8057 137.613 38.6714 137.101 38.6714C135.929 38.6714 135.379 39.2574 135.379 39.9471C135.379 41.5341 137.919 40.9298 137.919 41.8515C137.919 42.1689 137.638 42.407 136.973 42.407C136.448 42.407 135.904 42.2117 135.563 41.937L135.288 42.5535C135.642 42.8587 136.307 43.0662 136.973 43.0662Z" fill="#4633AF"/>
<path d="M140.659 39.7091C140.134 39.7091 139.627 39.8434 139.279 40.1119L139.578 40.6674C139.822 40.4659 140.201 40.3439 140.567 40.3439C141.11 40.3439 141.379 40.6063 141.379 41.0519V41.1008H140.537C139.548 41.1008 139.182 41.528 139.182 42.0713C139.182 42.6389 139.652 43.0479 140.396 43.0479C140.885 43.0479 141.239 42.8892 141.422 42.6084V43.0052H142.142V41.0946C142.142 40.1547 141.599 39.7091 140.659 39.7091ZM140.555 42.4924C140.164 42.4924 139.932 42.3154 139.932 42.0407C139.932 41.8027 140.073 41.6074 140.592 41.6074H141.379V41.9858C141.251 42.3215 140.927 42.4924 140.555 42.4924Z" fill="#4633AF"/>
<path d="M144.867 42.2849C144.751 42.3765 144.598 42.4192 144.44 42.4192C144.147 42.4192 143.988 42.2483 143.988 41.9309V40.3805H144.861V39.7701H143.988V39.0254H143.225V39.7701H142.688V40.3805H143.225V41.9492C143.225 42.6694 143.634 43.0479 144.348 43.0479C144.623 43.0479 144.897 42.9746 145.08 42.8281L144.867 42.2849Z" fill="#4633AF"/>
<path d="M146.093 39.2085C146.38 39.2085 146.581 39.001 146.581 38.7324C146.581 38.4822 146.373 38.293 146.093 38.293C145.812 38.293 145.604 38.4944 145.604 38.7508C145.604 39.0071 145.812 39.2085 146.093 39.2085ZM145.708 43.0052H146.471V39.7457H145.708V43.0052Z" fill="#4633AF"/>
<path d="M148.48 43.0479C149.395 43.0479 149.957 42.6511 149.957 42.0407C149.957 40.765 147.943 41.351 147.943 40.6918C147.943 40.4782 148.162 40.3256 148.626 40.3256C148.937 40.3256 149.249 40.3866 149.56 40.5697L149.853 39.9898C149.56 39.8128 149.066 39.7091 148.632 39.7091C147.753 39.7091 147.198 40.1119 147.198 40.7284C147.198 42.0285 149.212 41.4426 149.212 42.0652C149.212 42.291 149.011 42.4253 148.528 42.4253C148.12 42.4253 147.68 42.291 147.393 42.1018L147.1 42.6817C147.393 42.8892 147.936 43.0479 148.48 43.0479Z" fill="#4633AF"/>
<path d="M151.938 39.0498C152.097 39.0498 152.244 39.1048 152.36 39.1841L152.573 38.6104C152.402 38.4883 152.146 38.4334 151.883 38.4334C151.127 38.4334 150.718 38.8789 150.718 39.5626V39.7701H150.18V40.3805H150.718V43.0052H151.481V40.3805H152.353V39.7701H151.456V39.5748C151.456 39.2269 151.621 39.0498 151.938 39.0498Z" fill="#4633AF"/>
<path d="M154.053 39.7091C153.528 39.7091 153.021 39.8434 152.673 40.1119L152.972 40.6674C153.216 40.4659 153.595 40.3439 153.961 40.3439C154.504 40.3439 154.773 40.6063 154.773 41.0519V41.1008H153.931C152.942 41.1008 152.575 41.528 152.575 42.0713C152.575 42.6389 153.045 43.0479 153.79 43.0479C154.278 43.0479 154.633 42.8892 154.816 42.6084V43.0052H155.536V41.0946C155.536 40.1547 154.993 39.7091 154.053 39.7091ZM153.949 42.4924C153.558 42.4924 153.326 42.3154 153.326 42.0407C153.326 41.8027 153.467 41.6074 153.985 41.6074H154.773V41.9858C154.645 42.3215 154.321 42.4924 153.949 42.4924Z" fill="#4633AF"/>
<path d="M158.034 42.3948C157.473 42.3948 157.045 42.0102 157.045 41.3754C157.045 40.7467 157.473 40.3561 158.034 40.3561C158.358 40.3561 158.651 40.4965 158.846 40.8078L159.432 40.4659C159.182 39.9715 158.675 39.7091 158.04 39.7091C157.009 39.7091 156.276 40.3988 156.276 41.3754C156.276 42.2361 156.844 42.877 157.68 43.0174L157.528 43.585H157.717C157.949 43.585 158.04 43.6705 158.04 43.7865C158.04 43.9207 157.943 44.0062 157.717 44.0062C157.564 44.0062 157.43 43.9757 157.302 43.9085L157.161 44.2687C157.314 44.3541 157.503 44.3968 157.723 44.3968C158.223 44.3968 158.553 44.171 158.553 43.817C158.553 43.5545 158.382 43.347 158.022 43.3043L158.089 43.0479C158.7 43.0357 159.188 42.761 159.432 42.2849L158.846 41.9431C158.651 42.2544 158.358 42.3948 158.034 42.3948Z" fill="#4633AF"/>
<path d="M161.013 38.8973C161.233 38.8973 161.441 39.3001 161.843 39.3001C162.234 39.3001 162.49 38.9766 162.503 38.5005H162.094C162.081 38.7202 161.965 38.8484 161.795 38.8484C161.575 38.8484 161.367 38.4456 160.964 38.4456C160.574 38.4456 160.317 38.763 160.305 39.2635H160.714C160.726 39.0315 160.842 38.8973 161.013 38.8973ZM161.337 39.7091C160.812 39.7091 160.305 39.8434 159.957 40.1119L160.256 40.6674C160.501 40.4659 160.879 40.3439 161.245 40.3439C161.788 40.3439 162.057 40.6063 162.057 41.0519V41.1008H161.215C160.226 41.1008 159.86 41.528 159.86 42.0713C159.86 42.6389 160.33 43.0479 161.074 43.0479C161.563 43.0479 161.917 42.8892 162.1 42.6084V43.0052H162.82V41.0946C162.82 40.1547 162.277 39.7091 161.337 39.7091ZM161.233 42.4924C160.842 42.4924 160.61 42.3154 160.61 42.0407C160.61 41.8027 160.751 41.6074 161.27 41.6074H162.057V41.9858C161.929 42.3215 161.605 42.4924 161.233 42.4924Z" fill="#4633AF"/>
<path d="M165.294 43.0479C166.307 43.0479 167.034 42.352 167.034 41.3754C167.034 40.3988 166.307 39.7091 165.294 39.7091C164.293 39.7091 163.56 40.3988 163.56 41.3754C163.56 42.352 164.293 43.0479 165.294 43.0479ZM165.294 42.3948C164.745 42.3948 164.33 41.998 164.33 41.3754C164.33 40.7528 164.745 40.3561 165.294 40.3561C165.849 40.3561 166.264 40.7528 166.264 41.3754C166.264 41.998 165.849 42.3948 165.294 42.3948Z" fill="#4633AF"/>
<path d="M138.566 47.9415C138.291 48.1002 137.992 48.1612 137.687 48.1612C136.783 48.1612 136.142 47.5264 136.142 46.6597C136.142 45.7746 136.783 45.1581 137.693 45.1581C138.151 45.1581 138.535 45.3107 138.871 45.6464L139.371 45.1581C138.968 44.7003 138.37 44.4623 137.656 44.4623C136.319 44.4623 135.343 45.3839 135.343 46.6597C135.343 47.9354 136.319 48.8571 137.644 48.8571C138.248 48.8571 138.871 48.6739 139.316 48.3138V46.6108H138.566V47.9415Z" fill="#4633AF"/>
<path d="M141.535 45.4999C141.01 45.4999 140.503 45.6342 140.155 45.9028L140.455 46.4582C140.699 46.2568 141.077 46.1347 141.443 46.1347C141.987 46.1347 142.255 46.3972 142.255 46.8428V46.8916H141.413C140.424 46.8916 140.058 47.3189 140.058 47.8621C140.058 48.4298 140.528 48.8387 141.272 48.8387C141.761 48.8387 142.115 48.68 142.298 48.3993V48.796H143.018V46.8855C143.018 45.9455 142.475 45.4999 141.535 45.4999ZM141.431 48.2833C141.041 48.2833 140.809 48.1063 140.809 47.8316C140.809 47.5936 140.949 47.3982 141.468 47.3982H142.255V47.7767C142.127 48.1124 141.803 48.2833 141.431 48.2833Z" fill="#4633AF"/>
<path d="M144.724 46.0126V45.5365H143.997V48.796H144.76V47.2151C144.76 46.5498 145.127 46.208 145.706 46.208C145.761 46.208 145.816 46.2141 145.883 46.2263V45.4999C145.34 45.4999 144.943 45.6708 144.724 46.0126Z" fill="#4633AF"/>
<path d="M147.758 45.4999C147.233 45.4999 146.726 45.6342 146.379 45.9028L146.678 46.4582C146.922 46.2568 147.3 46.1347 147.666 46.1347C148.21 46.1347 148.478 46.3972 148.478 46.8428V46.8916H147.636C146.647 46.8916 146.281 47.3189 146.281 47.8621C146.281 48.4298 146.751 48.8387 147.496 48.8387C147.984 48.8387 148.338 48.68 148.521 48.3993V48.796H149.241V46.8855C149.241 45.9455 148.698 45.4999 147.758 45.4999ZM147.654 48.2833C147.264 48.2833 147.032 48.1063 147.032 47.8316C147.032 47.5936 147.172 47.3982 147.691 47.3982H148.478V47.7767C148.35 48.1124 148.027 48.2833 147.654 48.2833Z" fill="#4633AF"/>
<path d="M152.07 45.4999C151.594 45.4999 151.197 45.6586 150.947 45.9577V45.5365H150.22V48.796H150.983V47.148C150.983 46.4949 151.35 46.1652 151.893 46.1652C152.381 46.1652 152.668 46.446 152.668 47.0259V48.796H153.431V46.9282C153.431 45.9455 152.851 45.4999 152.07 45.4999Z" fill="#4633AF"/>
<path d="M156.145 48.0758C156.029 48.1673 155.876 48.21 155.717 48.21C155.424 48.21 155.266 48.0391 155.266 47.7217V46.1714H156.139V45.561H155.266V44.8163H154.503V45.561H153.966V46.1714H154.503V47.74C154.503 48.4603 154.912 48.8387 155.626 48.8387C155.901 48.8387 156.175 48.7655 156.358 48.619L156.145 48.0758Z" fill="#4633AF"/>
<path d="M157.371 44.9994C157.657 44.9994 157.859 44.7919 157.859 44.5233C157.859 44.273 157.651 44.0838 157.371 44.0838C157.09 44.0838 156.882 44.2853 156.882 44.5416C156.882 44.798 157.09 44.9994 157.371 44.9994ZM156.986 48.796H157.749V45.5365H156.986V48.796Z" fill="#4633AF"/>
<path d="M161.18 44.2669V45.9394C160.923 45.6403 160.551 45.4999 160.13 45.4999C159.184 45.4999 158.482 46.153 158.482 47.1663C158.482 48.1795 159.184 48.8387 160.13 48.8387C160.575 48.8387 160.954 48.6861 161.21 48.3748V48.796H161.943V44.2669H161.18ZM160.221 48.1856C159.672 48.1856 159.251 47.7889 159.251 47.1663C159.251 46.5437 159.672 46.1469 160.221 46.1469C160.771 46.1469 161.192 46.5437 161.192 47.1663C161.192 47.7889 160.771 48.1856 160.221 48.1856Z" fill="#4633AF"/>
<path d="M164.186 45.4999C163.661 45.4999 163.154 45.6342 162.807 45.9028L163.106 46.4582C163.35 46.2568 163.728 46.1347 164.094 46.1347C164.638 46.1347 164.906 46.3972 164.906 46.8428V46.8916H164.064C163.075 46.8916 162.709 47.3189 162.709 47.8621C162.709 48.4298 163.179 48.8387 163.924 48.8387C164.412 48.8387 164.766 48.68 164.949 48.3993V48.796H165.669V46.8855C165.669 45.9455 165.126 45.4999 164.186 45.4999ZM164.082 48.2833C163.692 48.2833 163.46 48.1063 163.46 47.8316C163.46 47.5936 163.6 47.3982 164.119 47.3982H164.906V47.7767C164.778 48.1124 164.455 48.2833 164.082 48.2833Z" fill="#4633AF"/>
<path d="M201.749 38.7324H199.991V43.0052H200.784V41.7722H201.749C202.872 41.7722 203.568 41.1923 203.568 40.2523C203.568 39.3062 202.872 38.7324 201.749 38.7324ZM201.712 41.1008H200.784V39.4039H201.712C202.408 39.4039 202.768 39.7152 202.768 40.2523C202.768 40.7895 202.408 41.1008 201.712 41.1008Z" fill="#4633AF"/>
<path d="M204.983 40.2218V39.7457H204.257V43.0052H205.02V41.4243C205.02 40.7589 205.386 40.4171 205.966 40.4171C206.021 40.4171 206.076 40.4232 206.143 40.4354V39.7091C205.6 39.7091 205.203 39.88 204.983 40.2218Z" fill="#4633AF"/>
<path d="M207.175 39.2085C207.462 39.2085 207.663 39.001 207.663 38.7324C207.663 38.4822 207.456 38.293 207.175 38.293C206.894 38.293 206.687 38.4944 206.687 38.7508C206.687 39.0071 206.894 39.2085 207.175 39.2085ZM206.79 43.0052H207.553V39.7457H206.79V43.0052Z" fill="#4633AF"/>
<path d="M210.874 39.7457L209.83 42.1628L208.817 39.7457H208.024L209.421 43.0052H210.209L211.607 39.7457H210.874Z" fill="#4633AF"/>
<path d="M213.227 39.7091C212.702 39.7091 212.196 39.8434 211.848 40.1119L212.147 40.6674C212.391 40.4659 212.77 40.3439 213.136 40.3439C213.679 40.3439 213.948 40.6063 213.948 41.0519V41.1008H213.105C212.116 41.1008 211.75 41.528 211.75 42.0713C211.75 42.6389 212.22 43.0479 212.965 43.0479C213.453 43.0479 213.807 42.8892 213.99 42.6084V43.0052H214.711V41.0946C214.711 40.1547 214.167 39.7091 213.227 39.7091ZM213.124 42.4924C212.733 42.4924 212.501 42.3154 212.501 42.0407C212.501 41.8027 212.641 41.6074 213.16 41.6074H213.948V41.9858C213.819 42.3215 213.496 42.4924 213.124 42.4924Z" fill="#4633AF"/>
<path d="M217.215 43.0479C217.85 43.0479 218.356 42.7732 218.607 42.2849L218.021 41.9431C217.825 42.2544 217.532 42.3948 217.209 42.3948C216.647 42.3948 216.22 42.0102 216.22 41.3754C216.22 40.7467 216.647 40.3561 217.209 40.3561C217.532 40.3561 217.825 40.4965 218.021 40.8078L218.607 40.4659C218.356 39.9715 217.85 39.7091 217.215 39.7091C216.183 39.7091 215.451 40.3988 215.451 41.3754C215.451 42.352 216.183 43.0479 217.215 43.0479Z" fill="#4633AF"/>
<path d="M219.651 39.2085C219.938 39.2085 220.139 39.001 220.139 38.7324C220.139 38.4822 219.932 38.293 219.651 38.293C219.37 38.293 219.163 38.4944 219.163 38.7508C219.163 39.0071 219.37 39.2085 219.651 39.2085ZM219.266 43.0052H220.029V39.7457H219.266V43.0052Z" fill="#4633AF"/>
<path d="M223.46 38.4761V40.1485C223.204 39.8495 222.831 39.7091 222.41 39.7091C221.464 39.7091 220.762 40.3622 220.762 41.3754C220.762 42.3887 221.464 43.0479 222.41 43.0479C222.856 43.0479 223.234 42.8953 223.491 42.584V43.0052H224.223V38.4761H223.46ZM222.502 42.3948C221.952 42.3948 221.531 41.998 221.531 41.3754C221.531 40.7528 221.952 40.3561 222.502 40.3561C223.051 40.3561 223.472 40.7528 223.472 41.3754C223.472 41.998 223.051 42.3948 222.502 42.3948Z" fill="#4633AF"/>
<path d="M226.466 39.7091C225.941 39.7091 225.435 39.8434 225.087 40.1119L225.386 40.6674C225.63 40.4659 226.009 40.3439 226.375 40.3439C226.918 40.3439 227.187 40.6063 227.187 41.0519V41.1008H226.344C225.355 41.1008 224.989 41.528 224.989 42.0713C224.989 42.6389 225.459 43.0479 226.204 43.0479C226.692 43.0479 227.046 42.8892 227.229 42.6084V43.0052H227.95V41.0946C227.95 40.1547 227.406 39.7091 226.466 39.7091ZM226.363 42.4924C225.972 42.4924 225.74 42.3154 225.74 42.0407C225.74 41.8027 225.88 41.6074 226.399 41.6074H227.187V41.9858C227.058 42.3215 226.735 42.4924 226.363 42.4924Z" fill="#4633AF"/>
<path d="M231.388 38.4761V40.1485C231.132 39.8495 230.759 39.7091 230.338 39.7091C229.392 39.7091 228.69 40.3622 228.69 41.3754C228.69 42.3887 229.392 43.0479 230.338 43.0479C230.784 43.0479 231.162 42.8953 231.418 42.584V43.0052H232.151V38.4761H231.388ZM230.43 42.3948C229.88 42.3948 229.459 41.998 229.459 41.3754C229.459 40.7528 229.88 40.3561 230.43 40.3561C230.979 40.3561 231.4 40.7528 231.4 41.3754C231.4 41.998 230.979 42.3948 230.43 42.3948Z" fill="#4633AF"/>
<path d="M236.213 41.3937C236.213 40.3744 235.517 39.7091 234.565 39.7091C233.595 39.7091 232.88 40.4049 232.88 41.3754C232.88 42.3459 233.589 43.0479 234.681 43.0479C235.243 43.0479 235.7 42.8648 235.993 42.5169L235.584 42.0469C235.353 42.2849 235.066 42.4009 234.699 42.4009C234.132 42.4009 233.735 42.0957 233.643 41.6196H236.201C236.207 41.5463 236.213 41.4548 236.213 41.3937ZM234.565 40.3195C235.066 40.3195 235.426 40.643 235.487 41.113H233.637C233.711 40.6369 234.071 40.3195 234.565 40.3195Z" fill="#4633AF"/>
<path d="M201.749 44.5233H199.991V48.796H200.784V47.563H201.749C202.872 47.563 203.568 46.9832 203.568 46.0432C203.568 45.0971 202.872 44.5233 201.749 44.5233ZM201.712 46.8916H200.784V45.1947H201.712C202.408 45.1947 202.768 45.506 202.768 46.0432C202.768 46.5803 202.408 46.8916 201.712 46.8916Z" fill="#4633AF"/>
<path d="M204.983 46.0126V45.5365H204.257V48.796H205.02V47.2151C205.02 46.5498 205.386 46.208 205.966 46.208C206.021 46.208 206.076 46.2141 206.143 46.2263V45.4999C205.6 45.4999 205.203 45.6708 204.983 46.0126Z" fill="#4633AF"/>
<path d="M208.225 48.8387C209.239 48.8387 209.965 48.1429 209.965 47.1663C209.965 46.1897 209.239 45.4999 208.225 45.4999C207.224 45.4999 206.492 46.1897 206.492 47.1663C206.492 48.1429 207.224 48.8387 208.225 48.8387ZM208.225 48.1856C207.676 48.1856 207.261 47.7889 207.261 47.1663C207.261 46.5437 207.676 46.1469 208.225 46.1469C208.781 46.1469 209.196 46.5437 209.196 47.1663C209.196 47.7889 208.781 48.1856 208.225 48.1856Z" fill="#4633AF"/>
<path d="M212.44 48.0758C212.324 48.1673 212.172 48.21 212.013 48.21C211.72 48.21 211.561 48.0391 211.561 47.7217V46.1714H212.434V45.561H211.561V44.8163H210.798V45.561H210.261V46.1714H210.798V47.74C210.798 48.4603 211.207 48.8387 211.922 48.8387C212.196 48.8387 212.471 48.7655 212.654 48.619L212.44 48.0758Z" fill="#4633AF"/>
<path d="M216.238 47.1846C216.238 46.1652 215.543 45.4999 214.59 45.4999C213.62 45.4999 212.906 46.1958 212.906 47.1663C212.906 48.1368 213.614 48.8387 214.706 48.8387C215.268 48.8387 215.726 48.6556 216.019 48.3077L215.61 47.8377C215.378 48.0758 215.091 48.1917 214.725 48.1917C214.157 48.1917 213.76 47.8865 213.669 47.4104H216.226C216.232 47.3372 216.238 47.2456 216.238 47.1846ZM214.59 46.1103C215.091 46.1103 215.451 46.4338 215.512 46.9038H213.663C213.736 46.4277 214.096 46.1103 214.59 46.1103Z" fill="#4633AF"/>
<path d="M219.48 45.5365V45.9699C219.211 45.6464 218.809 45.4999 218.351 45.4999C217.417 45.4999 216.703 46.1225 216.703 47.0686C216.703 48.0147 217.417 48.6495 218.351 48.6495C218.79 48.6495 219.175 48.5091 219.443 48.2161V48.3871C219.443 49.0463 219.126 49.3759 218.406 49.3759C217.954 49.3759 217.49 49.2233 217.203 48.9852L216.862 49.559C217.234 49.8642 217.838 50.0229 218.449 50.0229C219.59 50.0229 220.206 49.4858 220.206 48.3016V45.5365H219.48ZM218.467 48.0025C217.887 48.0025 217.472 47.6241 217.472 47.0686C217.472 46.5193 217.887 46.1469 218.467 46.1469C219.041 46.1469 219.456 46.5193 219.456 47.0686C219.456 47.6241 219.041 48.0025 218.467 48.0025Z" fill="#4633AF"/>
<path d="M221.594 44.9994C221.881 44.9994 222.082 44.7919 222.082 44.5233C222.082 44.273 221.875 44.0838 221.594 44.0838C221.313 44.0838 221.106 44.2853 221.106 44.5416C221.106 44.798 221.313 44.9994 221.594 44.9994ZM221.21 48.796H221.972V45.5365H221.21V48.796Z" fill="#4633AF"/>
<path d="M225.403 44.2669V45.9394C225.147 45.6403 224.775 45.4999 224.353 45.4999C223.407 45.4999 222.705 46.153 222.705 47.1663C222.705 48.1795 223.407 48.8387 224.353 48.8387C224.799 48.8387 225.177 48.6861 225.434 48.3748V48.796H226.166V44.2669H225.403ZM224.445 48.1856C223.896 48.1856 223.474 47.7889 223.474 47.1663C223.474 46.5437 223.896 46.1469 224.445 46.1469C224.994 46.1469 225.415 46.5437 225.415 47.1663C225.415 47.7889 224.994 48.1856 224.445 48.1856Z" fill="#4633AF"/>
<path d="M228.41 45.4999C227.885 45.4999 227.378 45.6342 227.03 45.9028L227.329 46.4582C227.573 46.2568 227.952 46.1347 228.318 46.1347C228.861 46.1347 229.13 46.3972 229.13 46.8428V46.8916H228.287C227.299 46.8916 226.932 47.3189 226.932 47.8621C226.932 48.4298 227.402 48.8387 228.147 48.8387C228.635 48.8387 228.989 48.68 229.173 48.3993V48.796H229.893V46.8855C229.893 45.9455 229.35 45.4999 228.41 45.4999ZM228.306 48.2833C227.915 48.2833 227.683 48.1063 227.683 47.8316C227.683 47.5936 227.824 47.3982 228.342 47.3982H229.13V47.7767C229.002 48.1124 228.678 48.2833 228.306 48.2833Z" fill="#4633AF"/>
<path d="M61.1947 35.9287L54.6455 38.1118V44.661C54.6455 48.2784 57.5773 51.2101 61.1947 51.2101C64.8121 51.2101 67.7439 48.2784 67.7439 44.661V38.1118L61.1947 35.9287ZM66.5159 44.661C66.5159 47.5996 64.1333 49.9822 61.1947 49.9822C58.2561 49.9822 55.8735 47.5996 55.8735 44.661V39.0328L61.1947 37.1567L66.5159 39.0328V44.661Z" fill="#4633AF"/>
<path d="M58.9159 42.9404C58.859 42.8832 58.7914 42.8378 58.7169 42.8069C58.6424 42.7759 58.5625 42.76 58.4819 42.76C58.4012 42.76 58.3213 42.7759 58.2468 42.8069C58.1723 42.8378 58.1047 42.8832 58.0478 42.9404C57.9906 42.9973 57.9453 43.0649 57.9143 43.1394C57.8834 43.2139 57.8674 43.2938 57.8674 43.3744C57.8674 43.4551 57.8834 43.535 57.9143 43.6094C57.9453 43.6839 57.9906 43.7516 58.0478 43.8085L60.2547 46.0154L60.2906 46.0512C60.3444 46.1052 60.4083 46.148 60.4787 46.1771C60.5491 46.2063 60.6245 46.2214 60.7007 46.2214C60.7769 46.2214 60.8524 46.2063 60.9228 46.1771C60.9931 46.148 61.0571 46.1052 61.1109 46.0512L64.9227 42.2394C64.9767 42.1856 65.0195 42.1216 65.0486 42.0513C65.0778 41.9809 65.0929 41.9054 65.0929 41.8292C65.0929 41.753 65.0778 41.6776 65.0486 41.6072C65.0195 41.5368 64.9767 41.4729 64.9227 41.4191L64.875 41.3713C64.8212 41.3174 64.7572 41.2746 64.6868 41.2454C64.6165 41.2162 64.541 41.2012 64.4648 41.2012C64.3886 41.2012 64.3132 41.2162 64.2428 41.2454C64.1724 41.2746 64.1085 41.3174 64.0546 41.3713L60.6999 44.7243L58.9159 42.9404Z" fill="#4633AF"/>
<path fill-rule="evenodd" clip-rule="evenodd" d="M116.946 42.648C116.084 42.5243 115.296 42.0939 114.725 41.4358C114.155 40.7778 113.841 39.9362 113.841 39.0654V38.5829C113.841 37.6505 114.598 36.8939 115.53 36.8939H116.839C117.059 36.3292 117.607 35.9287 118.25 35.9287H124.875C125.18 35.9289 125.477 36.0211 125.729 36.1933C125.981 36.3655 126.175 36.6097 126.286 36.8939H127.594C128.527 36.8939 129.283 37.6505 129.283 38.5829V39.0654C129.283 39.9362 128.969 40.7778 128.399 41.4358C127.829 42.0939 127.04 42.5243 126.178 42.648C125.975 43.312 125.63 43.9244 125.169 44.4435C124.707 44.9626 124.14 45.3762 123.504 45.6564L123.643 47.052C123.648 47.1002 123.672 47.1678 123.753 47.2489C123.836 47.3328 123.963 47.4129 124.113 47.468C124.386 47.5674 124.71 47.7324 124.972 48.0162C125.247 48.3154 125.423 48.714 125.423 49.1994V49.9233H126.629C126.821 49.9233 127.005 49.9995 127.141 50.1353C127.277 50.271 127.353 50.4552 127.353 50.6471C127.353 50.8391 127.277 51.0232 127.141 51.159C127.005 51.2947 126.821 51.371 126.629 51.371H116.495C116.303 51.371 116.119 51.2947 115.983 51.159C115.848 51.0232 115.771 50.8391 115.771 50.6471C115.771 50.4552 115.848 50.271 115.983 50.1353C116.119 49.9995 116.303 49.9233 116.495 49.9233H117.702V49.1994C117.702 48.714 117.877 48.3154 118.153 48.0162C118.414 47.7324 118.738 47.5674 119.011 47.468C119.146 47.4215 119.268 47.3468 119.371 47.2489C119.452 47.1668 119.477 47.1012 119.481 47.052L119.62 45.6564C118.985 45.3761 118.417 44.9624 117.956 44.4433C117.495 43.9242 117.151 43.3119 116.947 42.648H116.946ZM116.736 38.3416H115.53C115.466 38.3416 115.405 38.367 115.359 38.4122C115.314 38.4575 115.289 38.5189 115.289 38.5829V39.0654C115.289 40.0113 115.893 40.8152 116.736 41.1135V38.3416ZM121.038 46.0338L120.922 47.1958C120.833 48.0885 120.094 48.6145 119.506 48.8278C119.398 48.8615 119.299 48.9196 119.217 48.9977C119.181 49.0363 119.149 49.0875 119.149 49.2004V49.9242H123.975V49.2004C123.975 49.0875 123.943 49.0363 123.908 48.9977C123.825 48.9196 123.726 48.8614 123.618 48.8278C123.03 48.6145 122.292 48.0885 122.203 47.1968L122.087 46.0347C121.739 46.0725 121.387 46.0725 121.038 46.0347V46.0338ZM126.388 41.1144V38.3416H127.594C127.658 38.3416 127.72 38.367 127.765 38.4122C127.81 38.4575 127.836 38.5189 127.836 38.5829V39.0654C127.836 39.5146 127.697 39.9528 127.437 40.3196C127.178 40.6864 126.811 40.9637 126.388 41.1135V41.1144ZM118.184 37.4421C118.184 37.4063 118.213 37.3764 118.25 37.3764H124.875C124.91 37.3764 124.94 37.4054 124.94 37.4421V41.237C124.94 42.1329 124.584 42.9921 123.951 43.6256C123.317 44.2591 122.458 44.615 121.562 44.615C120.666 44.615 119.807 44.2591 119.174 43.6256C118.54 42.9921 118.184 42.1329 118.184 41.237V37.4421Z" fill="#4633AF"/>
<path d="M121.562 38.2451L122.082 39.8457L123.765 39.8457L122.404 40.8349L122.924 42.4354L121.562 41.4462L120.201 42.4354L120.721 40.8349L119.359 39.8457L121.042 39.8457L121.562 38.2451Z" fill="#4633AF"/>
<path d="M268.391 19.158V13.1035C268.391 12.8386 268.443 12.5764 268.544 12.3317C268.646 12.087 268.794 11.8646 268.982 11.6774C269.169 11.4901 269.391 11.3416 269.636 11.2402C269.881 11.1389 270.143 11.0868 270.408 11.0869H272.194C272.727 11.088 273.238 11.3007 273.615 11.6783C273.992 12.056 274.204 12.5676 274.204 13.1011V14.3898C274.204 14.9248 273.991 15.4378 273.613 15.8161C273.235 16.1944 272.722 16.407 272.187 16.407H269.661" stroke="#4633AF" stroke-width="0.440336" stroke-linecap="round" stroke-linejoin="round"/>
<path d="M274.705 11.085H275.479C275.698 11.085 275.909 11.1722 276.064 11.3275C276.219 11.4827 276.307 11.6933 276.307 11.9129V16.4366" stroke="#4633AF" stroke-width="0.440336" stroke-linecap="round" stroke-linejoin="round"/>
<path d="M276.139 10.3844L275.788 10.0326C275.767 10.0119 275.751 9.98725 275.74 9.96014C275.728 9.93302 275.723 9.90395 275.723 9.87459C275.723 9.84523 275.728 9.81616 275.74 9.78904C275.751 9.76192 275.767 9.73729 275.788 9.71656L276.139 9.36538C276.16 9.34459 276.185 9.3281 276.212 9.31685C276.239 9.3056 276.268 9.2998 276.297 9.2998C276.327 9.2998 276.356 9.3056 276.383 9.31685C276.41 9.3281 276.435 9.34459 276.455 9.36538L276.807 9.71656C276.828 9.73729 276.845 9.76192 276.856 9.78904C276.867 9.81616 276.873 9.84523 276.873 9.87459C276.873 9.90395 276.867 9.93302 276.856 9.96014C276.845 9.98725 276.828 10.0119 276.807 10.0326L276.455 10.3844C276.435 10.4052 276.41 10.4217 276.383 10.4329C276.356 10.4442 276.327 10.45 276.297 10.45C276.268 10.45 276.239 10.4442 276.212 10.4329C276.185 10.4217 276.16 10.4052 276.139 10.3844" fill="#4633AF"/>
<path d="M277.796 11.0811H278.565C278.961 11.0811 279.34 11.2383 279.62 11.5179L281.418 13.3161C281.474 13.3716 281.539 13.4157 281.612 13.4457C281.684 13.4758 281.762 13.4913 281.84 13.4913C281.918 13.4913 281.996 13.4758 282.068 13.4457C282.141 13.4157 282.207 13.3716 282.262 13.3161L284.056 11.5245C284.194 11.386 284.359 11.2761 284.54 11.2011C284.721 11.1261 284.915 11.0876 285.111 11.0876H285.735" stroke="#4633AF" stroke-width="0.440336" stroke-linecap="round" stroke-linejoin="round"/>
<path d="M277.796 16.3959H278.565C278.961 16.3959 279.34 16.2387 279.62 15.959L281.418 14.1615C281.474 14.106 281.539 14.0619 281.612 14.0319C281.684 14.0018 281.762 13.9863 281.84 13.9863C281.918 13.9863 281.996 14.0018 282.068 14.0319C282.141 14.0619 282.207 14.106 282.262 14.1615L284.056 15.9525C284.194 16.091 284.359 16.2009 284.54 16.2759C284.721 16.3509 284.915 16.3894 285.111 16.3894H285.735" stroke="#4633AF" stroke-width="0.440336" stroke-linecap="round" stroke-linejoin="round"/>
<path d="M263.807 17.5454C263.617 17.546 263.429 17.5089 263.253 17.4362C263.078 17.3636 262.918 17.2568 262.785 17.1222L261.309 15.6502C261.257 15.6002 261.187 15.5723 261.115 15.5723C261.043 15.5723 260.974 15.6002 260.922 15.6502L259.441 17.1305C259.307 17.2652 259.147 17.3719 258.972 17.4445C258.797 17.5172 258.609 17.5543 258.419 17.5537H258.128L259.997 19.4227C260.277 19.7028 260.657 19.8602 261.053 19.8602C261.45 19.8602 261.83 19.7028 262.11 19.4227L263.984 17.5484L263.807 17.5454Z" fill="#4633AF"/>
<path d="M258.418 12.3259C258.608 12.3254 258.796 12.3626 258.972 12.4353C259.147 12.5079 259.306 12.6146 259.44 12.7491L260.921 14.23C260.973 14.2813 261.042 14.3101 261.115 14.3101C261.188 14.3101 261.257 14.2813 261.309 14.23L262.784 12.7544C262.918 12.6199 263.078 12.5132 263.253 12.4406C263.428 12.368 263.616 12.3308 263.806 12.3312H263.985L262.111 10.4575C261.972 10.3187 261.808 10.2085 261.626 10.1334C261.445 10.0582 261.251 10.0195 261.054 10.0195C260.858 10.0195 260.664 10.0582 260.482 10.1334C260.301 10.2085 260.136 10.3187 259.998 10.4575L258.129 12.3259H258.418Z" fill="#4633AF"/>
<path d="M265.534 13.8812L264.404 12.7503C264.378 12.7605 264.351 12.766 264.323 12.7664H263.808C263.54 12.7675 263.284 12.8745 263.094 13.064L261.616 14.5365C261.55 14.6023 261.472 14.6545 261.387 14.69C261.301 14.7256 261.209 14.7438 261.116 14.7437C260.928 14.744 260.747 14.6697 260.614 14.5371L259.134 13.0562C258.944 12.8667 258.687 12.7597 258.419 12.7586H257.787C257.76 12.7582 257.735 12.7529 257.71 12.7432L256.573 13.88C256.435 14.0188 256.324 14.1835 256.249 14.3648C256.174 14.5462 256.135 14.7405 256.135 14.9368C256.135 15.1331 256.174 15.3275 256.249 15.5088C256.324 15.6901 256.435 15.8549 256.573 15.9936L257.71 17.1305C257.735 17.1208 257.76 17.1155 257.787 17.115H258.419C258.687 17.1137 258.944 17.0068 259.134 16.8174L260.614 15.3365C260.749 15.2077 260.929 15.1359 261.115 15.1359C261.302 15.1359 261.481 15.2077 261.616 15.3365L263.092 16.8121C263.281 17.0014 263.538 17.1084 263.806 17.1097H264.321C264.348 17.11 264.376 17.1156 264.401 17.1263L265.532 15.9954C265.812 15.7151 265.97 15.3349 265.97 14.9386C265.97 14.5423 265.812 14.1622 265.532 13.8818" fill="#4633AF"/>
<path d="M269.928 18.6416C269.835 18.6458 269.742 18.66 269.651 18.6839V19.0529C269.72 19.0773 269.793 19.0896 269.867 19.0892C270.052 19.0892 270.14 19.0267 270.14 18.8637C270.14 18.7107 270.068 18.6416 269.928 18.6416V18.6416ZM269.588 19.3267V18.5976H269.64L269.645 18.6291C269.739 18.6039 269.836 18.5883 269.934 18.5827C270.001 18.578 270.068 18.5974 270.123 18.6375C270.153 18.6666 270.176 18.702 270.19 18.7411C270.205 18.7802 270.21 18.8221 270.206 18.8637C270.21 18.91 270.201 18.9564 270.18 18.9978C270.159 19.0393 270.127 19.0742 270.087 19.0988C270.02 19.1317 269.947 19.148 269.872 19.1464C269.797 19.1459 269.722 19.1345 269.65 19.1125V19.3267H269.588Z" fill="#4633AF"/>
<path d="M270.671 18.6414C270.486 18.6414 270.403 18.7009 270.403 18.8622C270.403 19.0235 270.485 19.0908 270.671 19.0908C270.856 19.0908 270.937 19.0313 270.937 18.8705C270.937 18.7098 270.856 18.6414 270.671 18.6414V18.6414ZM270.909 19.0908C270.838 19.1349 270.754 19.1557 270.671 19.1503C270.587 19.1553 270.504 19.1345 270.433 19.0908C270.399 19.0643 270.373 19.0299 270.356 18.9907C270.34 18.9515 270.333 18.9088 270.337 18.8664C270.334 18.8239 270.34 18.7812 270.357 18.742C270.373 18.7027 270.399 18.6682 270.433 18.6414C270.504 18.5974 270.587 18.5766 270.671 18.5819C270.754 18.5767 270.837 18.5975 270.909 18.6414C270.942 18.6679 270.968 18.7023 270.985 18.7413C271.001 18.7804 271.008 18.8229 271.004 18.8652C271.008 18.9077 271.002 18.9506 270.985 18.99C270.968 19.0294 270.942 19.064 270.909 19.0908" fill="#4633AF"/>
<path d="M271.784 19.1314L271.578 18.6886H271.574L271.371 19.1314H271.318L271.098 18.5957H271.167L271.35 19.0439H271.354L271.553 18.5957H271.612L271.816 19.0439H271.82L271.999 18.5957H272.066L271.846 19.1314H271.784Z" fill="#4633AF"/>
<path d="M272.459 18.6395C272.288 18.6395 272.23 18.7157 272.221 18.8258H272.701C272.696 18.7038 272.633 18.6395 272.463 18.6395H272.459ZM272.463 19.1472C272.384 19.1556 272.305 19.1344 272.241 19.0877C272.21 19.0595 272.186 19.0247 272.17 18.986C272.155 18.9473 272.148 18.9055 272.151 18.8639C272.149 18.8207 272.157 18.7776 272.174 18.7379C272.191 18.6982 272.218 18.6631 272.251 18.6353C272.313 18.5965 272.386 18.5778 272.459 18.5818C272.534 18.5771 272.608 18.5952 272.673 18.6335C272.75 18.6853 272.765 18.7764 272.765 18.88H272.217C272.217 18.9895 272.255 19.0871 272.462 19.0871C272.555 19.0849 272.647 19.0745 272.738 19.0562V19.1121C272.646 19.1314 272.552 19.1426 272.457 19.1454" fill="#4633AF"/>
<path d="M272.944 19.1326V18.5969H272.995L273 18.6285C273.086 18.6003 273.175 18.5847 273.265 18.582H273.273V18.6416H273.258C273.172 18.6434 273.088 18.6576 273.006 18.6838V19.1314L272.944 19.1326Z" fill="#4633AF"/>
<path d="M273.635 18.6387C273.464 18.6387 273.405 18.7149 273.397 18.825H273.877C273.872 18.703 273.81 18.6387 273.639 18.6387H273.635ZM273.639 19.1464C273.561 19.1546 273.481 19.1334 273.417 19.0869C273.388 19.0584 273.365 19.0236 273.351 18.9852C273.336 18.9468 273.331 18.9057 273.334 18.8649C273.332 18.8217 273.339 18.7785 273.357 18.7388C273.374 18.6992 273.4 18.6641 273.433 18.6363C273.496 18.5975 273.568 18.5788 273.642 18.5827C273.716 18.5782 273.791 18.5962 273.855 18.6345C273.932 18.6863 273.947 18.7774 273.947 18.8809H273.399C273.399 18.9905 273.438 19.0881 273.645 19.0881C273.737 19.0858 273.83 19.0755 273.921 19.0571V19.1131C273.828 19.1324 273.734 19.1435 273.639 19.1464" fill="#4633AF"/>
<path d="M274.624 18.6766C274.555 18.6524 274.482 18.6404 274.408 18.6409C274.223 18.6409 274.135 18.7034 274.135 18.8659C274.135 19.0284 274.207 19.0879 274.347 19.0879C274.441 19.0835 274.533 19.0697 274.624 19.0468V18.6766ZM274.636 19.1325L274.631 19.1004C274.536 19.1258 274.439 19.1416 274.342 19.1474C274.274 19.1526 274.207 19.1329 274.153 19.0921C274.122 19.0631 274.099 19.0277 274.085 18.9886C274.07 18.9494 274.065 18.9075 274.069 18.8659C274.065 18.8197 274.074 18.7735 274.095 18.7322C274.116 18.691 274.148 18.6563 274.188 18.632C274.255 18.5982 274.329 18.5817 274.404 18.5838C274.479 18.5846 274.553 18.5961 274.625 18.6177V18.373H274.687V19.1325H274.636Z" fill="#4633AF"/>
<path d="M275.604 18.6427C275.51 18.6469 275.417 18.661 275.326 18.6849V19.0528C275.395 19.0781 275.469 19.0908 275.542 19.0903C275.727 19.0903 275.815 19.0278 275.815 18.8647C275.815 18.7117 275.743 18.6427 275.604 18.6427V18.6427ZM275.763 19.0998C275.696 19.1327 275.623 19.149 275.548 19.1474C275.467 19.1466 275.387 19.1329 275.31 19.1069V19.1325H275.267V18.373H275.327V18.626C275.419 18.6024 275.514 18.5876 275.61 18.582C275.677 18.5773 275.744 18.5967 275.799 18.6367C275.829 18.6658 275.852 18.7012 275.866 18.7404C275.881 18.7795 275.886 18.8214 275.882 18.8629C275.886 18.9092 275.877 18.9556 275.856 18.9971C275.835 19.0386 275.803 19.0735 275.763 19.098" fill="#4633AF"/>
<path d="M275.961 19.3399V19.2804C275.991 19.2804 276.02 19.2857 276.04 19.2857C276.076 19.2887 276.112 19.2795 276.143 19.2595C276.173 19.2395 276.196 19.21 276.207 19.1756L276.227 19.1334L275.948 18.5977H276.02L276.258 19.0584H276.263L276.49 18.5977H276.561L276.263 19.197C276.208 19.306 276.149 19.3417 276.04 19.3417C276.014 19.3429 275.987 19.3423 275.961 19.3399Z" fill="#4633AF"/>
<path d="M277.423 18.8269H277.215V19.0143H277.423C277.566 19.0143 277.62 18.9983 277.62 18.9197C277.62 18.8411 277.546 18.8269 277.423 18.8269V18.8269ZM277.385 18.5233H277.215V18.7138H277.385C277.526 18.7138 277.582 18.6971 277.582 18.6173C277.582 18.5376 277.511 18.5233 277.385 18.5233V18.5233ZM277.706 19.081C277.63 19.1292 277.538 19.1316 277.37 19.1316H277.054V18.4072H277.362C277.507 18.4072 277.596 18.4072 277.67 18.4537C277.694 18.4683 277.714 18.4896 277.728 18.5151C277.741 18.5405 277.746 18.5691 277.744 18.5977C277.746 18.6334 277.736 18.6688 277.715 18.6979C277.694 18.7271 277.664 18.7484 277.63 18.7584V18.7626C277.723 18.7834 277.783 18.831 277.783 18.934C277.785 18.9632 277.779 18.9925 277.766 19.0185C277.752 19.0445 277.731 19.0662 277.706 19.081" fill="#4633AF"/>
<path d="M278.415 18.908C278.356 18.9026 278.29 18.8996 278.223 18.8996C278.114 18.8996 278.076 18.9216 278.076 18.9716C278.076 19.0216 278.108 19.0431 278.191 19.0431C278.267 19.0404 278.342 19.0298 278.415 19.0115V18.908ZM278.447 19.1324L278.443 19.1002C278.348 19.127 278.251 19.1428 278.153 19.1472C278.096 19.151 278.04 19.1373 277.992 19.1079C277.972 19.093 277.956 19.0734 277.946 19.0508C277.935 19.0283 277.931 19.0036 277.932 18.9788C277.931 18.9484 277.939 18.9184 277.955 18.8925C277.971 18.8667 277.994 18.8464 278.022 18.8341C278.086 18.8102 278.154 18.8 278.223 18.8044C278.279 18.8044 278.354 18.8074 278.416 18.8115V18.8044C278.416 18.7211 278.361 18.6937 278.211 18.6937C278.151 18.6937 278.082 18.6967 278.014 18.7032V18.5949C278.089 18.5889 278.174 18.5848 278.243 18.5848C278.329 18.5772 278.416 18.5943 278.492 18.6342C278.552 18.6776 278.565 18.7377 278.565 18.8175V19.1335L278.447 19.1324Z" fill="#4633AF"/>
<path d="M279.262 19.1319V18.8343C279.262 18.7373 279.212 18.7021 279.123 18.7021C279.05 18.7053 278.976 18.7167 278.905 18.7361V19.1295H278.758V18.5938H278.877L278.883 18.6271C278.976 18.6002 279.071 18.584 279.168 18.5789C279.234 18.5738 279.299 18.5933 279.351 18.6337C279.373 18.6554 279.389 18.6817 279.4 18.7106C279.41 18.7396 279.414 18.7704 279.411 18.8009V19.1277L279.262 19.1319Z" fill="#4633AF"/>
<path d="M279.83 19.1466C279.759 19.1521 279.688 19.1321 279.631 19.0901C279.6 19.0613 279.577 19.026 279.562 18.9868C279.548 18.9476 279.542 18.9056 279.546 18.8639C279.543 18.8198 279.552 18.7756 279.571 18.7357C279.59 18.6958 279.619 18.6615 279.655 18.6359C279.727 18.5959 279.808 18.5775 279.89 18.583C279.949 18.583 280.012 18.5871 280.078 18.5931V18.7074C280.024 18.7026 279.959 18.6978 279.908 18.6978C279.766 18.6978 279.699 18.7425 279.699 18.8651C279.699 18.9877 279.749 19.03 279.865 19.03C279.941 19.0276 280.016 19.0185 280.09 19.0026V19.1127C280.004 19.1323 279.917 19.1437 279.83 19.1466Z" fill="#4633AF"/>
<path d="M280.532 18.6954C280.39 18.6954 280.327 18.74 280.327 18.8614C280.327 18.9828 280.387 19.0346 280.532 19.0346C280.676 19.0346 280.733 18.9912 280.733 18.8698C280.733 18.7483 280.674 18.6954 280.532 18.6954V18.6954ZM280.787 19.0906C280.71 19.1346 280.621 19.1543 280.532 19.1471C280.442 19.154 280.353 19.1344 280.274 19.0906C280.24 19.065 280.212 19.0309 280.194 18.9914C280.177 18.952 280.17 18.9086 280.174 18.8656C280.17 18.8224 280.177 18.7789 280.194 18.7392C280.212 18.6996 280.24 18.6652 280.274 18.6394C280.353 18.5958 280.442 18.5764 280.532 18.5835C280.62 18.5766 280.709 18.5961 280.787 18.6394C280.822 18.6651 280.849 18.6994 280.867 18.7388C280.884 18.7782 280.891 18.8215 280.887 18.8644C280.891 18.9075 280.884 18.9509 280.867 18.9905C280.849 19.0301 280.822 19.0646 280.787 19.0906" fill="#4633AF"/>
<path d="M281.747 19.1479C281.655 19.1538 281.563 19.1271 281.487 19.0723C281.4 19.0009 281.374 18.8896 281.374 18.77C281.371 18.7105 281.383 18.6512 281.409 18.5974C281.434 18.5437 281.473 18.4972 281.521 18.4622C281.615 18.4105 281.721 18.3868 281.828 18.3938C281.908 18.3938 281.99 18.3991 282.08 18.4063V18.5366C282.003 18.5301 281.908 18.5247 281.834 18.5247C281.628 18.5247 281.54 18.6033 281.54 18.77C281.54 18.9366 281.621 19.0164 281.774 19.0164C281.882 19.0128 281.99 18.9983 282.096 18.9729V19.1027C281.982 19.1295 281.865 19.1449 281.747 19.1485" fill="#4633AF"/>
<path d="M282.534 18.6783C282.41 18.6783 282.363 18.7223 282.356 18.8039H282.713C282.709 18.717 282.658 18.6783 282.534 18.6783ZM282.512 19.1467C282.432 19.154 282.352 19.1329 282.286 19.0872C282.256 19.0589 282.232 19.0241 282.217 18.9854C282.203 18.9468 282.197 18.9053 282.2 18.864C282.198 18.8213 282.206 18.7786 282.223 18.7394C282.24 18.7003 282.267 18.6659 282.3 18.639C282.371 18.5967 282.452 18.5772 282.534 18.5831C282.615 18.5781 282.695 18.5967 282.766 18.6366C282.851 18.6961 282.859 18.7902 282.86 18.9003H282.352C282.356 18.9818 282.399 19.0342 282.549 19.0342C282.644 19.0321 282.739 19.023 282.834 19.0068V19.1116C282.727 19.1317 282.62 19.1435 282.512 19.1467Z" fill="#4633AF"/>
<path d="M283.523 19.1319V18.8343C283.523 18.7373 283.474 18.7021 283.385 18.7021C283.311 18.7053 283.238 18.7167 283.167 18.7361V19.1295H283.018V18.5938H283.14L283.145 18.6271C283.238 18.6001 283.333 18.5839 283.43 18.5789C283.496 18.5738 283.561 18.5933 283.613 18.6337C283.635 18.6554 283.652 18.6817 283.662 18.7106C283.672 18.7396 283.676 18.7704 283.673 18.8009V19.1277L283.523 19.1319Z" fill="#4633AF"/>
<path d="M284.096 19.1472C284.063 19.1504 284.029 19.1451 283.999 19.1317C283.969 19.1184 283.942 19.0975 283.922 19.071C283.893 19.0224 283.879 18.9659 283.883 18.9091V18.7091H283.775V18.5984H283.883L283.899 18.4365H284.031V18.5984H284.241V18.7091H284.031V18.8806C284.029 18.9151 284.034 18.9498 284.046 18.9823C284.055 18.9996 284.069 19.0137 284.087 19.0225C284.104 19.0314 284.124 19.0346 284.143 19.0317C284.179 19.0311 284.215 19.0275 284.25 19.021V19.1282C284.199 19.1393 284.147 19.1457 284.096 19.1472" fill="#4633AF"/>
<path d="M284.387 19.1326V18.5969H284.506L284.512 18.6302C284.597 18.6015 284.686 18.5852 284.776 18.582H284.795V18.7094C284.778 18.7094 284.758 18.7094 284.743 18.7094C284.673 18.7097 284.602 18.7189 284.534 18.7368V19.1314L284.387 19.1326Z" fill="#4633AF"/>
<path d="M285.34 18.908C285.277 18.9026 285.214 18.8996 285.147 18.8996C285.038 18.8996 285 18.9217 285 18.9716C285 19.0216 285.032 19.0431 285.115 19.0431C285.191 19.0403 285.266 19.0298 285.34 19.0115V18.908ZM285.371 19.1324L285.365 19.102C285.271 19.1288 285.174 19.1446 285.075 19.149C285.019 19.1527 284.962 19.139 284.914 19.1097C284.894 19.0947 284.878 19.0751 284.868 19.0526C284.857 19.03 284.853 19.0053 284.854 18.9806C284.853 18.9494 284.861 18.9185 284.878 18.8922C284.895 18.866 284.92 18.8457 284.949 18.8342C285.012 18.8107 285.08 18.801 285.148 18.8056C285.204 18.8056 285.28 18.8086 285.342 18.8127V18.8044C285.342 18.7211 285.287 18.6937 285.137 18.6937C285.077 18.6937 285.008 18.6967 284.94 18.7032V18.5949C285.015 18.5889 285.1 18.5848 285.169 18.5848C285.255 18.5772 285.341 18.5943 285.418 18.6342C285.477 18.6776 285.491 18.7377 285.491 18.8175V19.1335L285.371 19.1324Z" fill="#4633AF"/>
<path d="M285.68 18.373H285.83V19.1325H285.68V18.373Z" fill="#4633AF"/>
<path fill-rule="evenodd" clip-rule="evenodd" d="M227.554 18.9895V15.4449H229.383C230.133 15.4449 230.766 15.1937 231.282 14.6983L231.405 14.5727C232.348 13.5471 232.286 11.9492 231.282 11.0003C230.78 10.4979 230.092 10.2258 229.383 10.2398H226.447V18.9895H227.554ZM227.554 14.3703V11.3142H229.411C229.81 11.3142 230.189 11.4677 230.471 11.7468C231.069 12.3329 231.083 13.3097 230.505 13.9168C230.223 14.2168 229.824 14.3843 229.411 14.3703H227.554ZM236.57 13.4706C236.096 13.031 235.449 12.8078 234.631 12.8078C233.579 12.8078 232.788 13.1985 232.265 13.973L233.242 14.594C233.599 14.0637 234.088 13.7986 234.707 13.7986C235.099 13.7986 235.477 13.9451 235.773 14.2102C236.061 14.4614 236.226 14.8242 236.226 15.208V15.4662C235.8 15.2289 235.264 15.1033 234.603 15.1033C233.833 15.1033 233.214 15.2848 232.753 15.6546C232.293 16.0244 232.059 16.5128 232.059 17.1338C232.045 17.6989 232.286 18.2362 232.712 18.599C233.145 18.9898 233.696 19.1851 234.342 19.1851C235.105 19.1851 235.711 18.8432 236.171 18.1595H236.22V18.9898H237.279V15.2987C237.279 14.5242 237.045 13.9102 236.57 13.4706ZM233.565 17.8877C233.338 17.7202 233.201 17.4481 233.201 17.155C233.201 16.8271 233.352 16.555 233.648 16.3387C233.95 16.1224 234.329 16.0107 234.776 16.0107C235.395 16.0037 235.876 16.1433 236.22 16.4224C236.22 16.8969 236.035 17.3085 235.67 17.6574C235.34 17.9923 234.893 18.1807 234.425 18.1807C234.116 18.1877 233.813 18.083 233.565 17.8877ZM239.658 21.6202L243.358 13.0031H242.155L240.442 17.3012H240.422L238.668 13.0031H237.464L239.892 18.606L238.517 21.6202H239.658Z" fill="#4633AF"/>
<path d="M223.732 14.6769C223.732 14.335 223.704 13.9931 223.649 13.6582H218.979V15.5909H221.655C221.545 16.2119 221.187 16.7701 220.664 17.119V18.3749H222.26C223.195 17.5028 223.732 16.2119 223.732 14.6769Z" fill="#4633AF"/>
<path d="M218.979 19.5892C220.314 19.5892 221.441 19.1426 222.26 18.3751L220.664 17.1192C220.217 17.4262 219.646 17.6006 218.979 17.6006C217.686 17.6006 216.593 16.7145 216.201 15.5283H214.557V16.8261C215.396 18.5216 217.109 19.5892 218.979 19.5892Z" fill="#4633AF"/>
<path d="M216.201 15.5281C215.995 14.9071 215.995 14.2303 216.201 13.6023V12.3115H214.557C213.849 13.7279 213.849 15.4025 214.557 16.8189L216.201 15.5281Z" fill="#4633AF"/>
<path d="M218.979 11.5299C219.688 11.5159 220.369 11.788 220.878 12.2834L222.294 10.8461C221.393 9.99485 220.21 9.52736 218.979 9.54132C217.109 9.54132 215.396 10.6158 214.557 12.3114L216.201 13.6092C216.593 12.416 217.686 11.5299 218.979 11.5299Z" fill="#4633AF"/>
<path fill-rule="evenodd" clip-rule="evenodd" d="M178.901 18.3818H177.076C176.951 18.3818 176.845 18.4726 176.825 18.5959L176.087 23.2763C176.072 23.3687 176.144 23.4519 176.238 23.4519H177.109C177.234 23.4519 177.34 23.3611 177.36 23.2376L177.559 21.9753C177.578 21.8516 177.684 21.761 177.809 21.761H178.387C179.589 21.761 180.283 21.1791 180.464 20.0262C180.546 19.5218 180.468 19.1255 180.232 18.8478C179.972 18.5431 179.512 18.3818 178.901 18.3818ZM179.112 20.0913C179.012 20.7463 178.512 20.7463 178.028 20.7463H177.752L177.945 19.523C177.957 19.4492 178.021 19.3947 178.096 19.3947H178.222C178.552 19.3947 178.863 19.3947 179.023 19.5826C179.119 19.6947 179.148 19.8612 179.112 20.0913ZM184.357 20.0703H183.483C183.409 20.0703 183.344 20.1248 183.333 20.1987L183.294 20.4432L183.233 20.3546C183.044 20.0799 182.622 19.9882 182.201 19.9882C181.235 19.9882 180.41 20.7197 180.249 21.7459C180.166 22.2577 180.284 22.7472 180.575 23.0886C180.841 23.4024 181.222 23.5332 181.676 23.5332C182.454 23.5332 182.886 23.0327 182.886 23.0327L182.847 23.2757C182.832 23.3686 182.903 23.4518 182.997 23.4518H183.784C183.909 23.4518 184.015 23.361 184.034 23.2375L184.507 20.2459C184.522 20.1539 184.451 20.0703 184.357 20.0703ZM183.139 21.7715C183.054 22.2708 182.658 22.606 182.153 22.606C181.899 22.606 181.696 22.5246 181.566 22.3704C181.437 22.2172 181.387 21.9991 181.429 21.7563C181.507 21.2612 181.91 20.9151 182.408 20.9151C182.656 20.9151 182.858 20.9975 182.991 21.1531C183.124 21.3103 183.177 21.5297 183.139 21.7715ZM188.134 20.0702H189.012C189.135 20.0702 189.207 20.2081 189.137 20.309L186.216 24.5258C186.169 24.5941 186.091 24.6348 186.007 24.6348H185.13C185.007 24.6348 184.934 24.4957 185.006 24.3945L185.916 23.1106L184.948 20.2714C184.915 20.1727 184.988 20.0702 185.093 20.0702H185.956C186.068 20.0702 186.167 20.1438 186.199 20.2511L186.712 21.9659L187.924 20.1815C187.971 20.1118 188.05 20.0702 188.134 20.0702Z" fill="#4633AF"/>
<path fill-rule="evenodd" clip-rule="evenodd" d="M197.657 23.2765L198.406 18.5105C198.418 18.4366 198.482 18.3821 198.556 18.3818H199.4C199.493 18.3818 199.564 18.4653 199.55 18.5577L198.811 23.2379C198.792 23.3614 198.685 23.4522 198.56 23.4522H197.807C197.714 23.4522 197.643 23.3689 197.657 23.2765ZM191.921 18.3821H190.095C189.97 18.3821 189.864 18.4729 189.845 18.5961L189.106 23.2765C189.092 23.3689 189.163 23.4522 189.256 23.4522H190.193C190.28 23.4522 190.355 23.3887 190.368 23.3022L190.578 21.9755C190.597 21.8519 190.703 21.7612 190.828 21.7612H191.406C192.608 21.7612 193.302 21.1794 193.483 20.0265C193.565 19.5221 193.487 19.1257 193.25 18.8481C192.991 18.5434 192.531 18.3821 191.921 18.3821ZM192.131 20.0915C192.032 20.7465 191.531 20.7465 191.047 20.7465H190.772L190.965 19.5233C190.977 19.4494 191.04 19.395 191.115 19.395H191.241C191.571 19.395 191.882 19.395 192.043 19.5828C192.139 19.695 192.168 19.8615 192.131 20.0915ZM197.376 20.0705H196.503C196.428 20.0705 196.364 20.125 196.353 20.199L196.314 20.4434L196.253 20.3549C196.063 20.0802 195.642 19.9884 195.221 19.9884C194.255 19.9884 193.43 20.7199 193.269 21.7462C193.186 22.258 193.304 22.7474 193.595 23.0888C193.861 23.4026 194.242 23.5334 194.695 23.5334C195.474 23.5334 195.905 23.033 195.905 23.033L195.866 23.2759C195.852 23.3688 195.923 23.452 196.017 23.452H196.804C196.928 23.452 197.035 23.3613 197.054 23.2378L197.527 20.2462C197.541 20.1542 197.47 20.0705 197.376 20.0705ZM196.158 21.7717C196.074 22.2711 195.677 22.6063 195.172 22.6063C194.918 22.6063 194.715 22.5249 194.585 22.3706C194.456 22.2175 194.407 21.9994 194.448 21.7565C194.527 21.2614 194.929 20.9153 195.427 20.9153C195.675 20.9153 195.877 20.9977 196.01 21.1533C196.144 21.3106 196.196 21.5299 196.158 21.7717Z" fill="#4633AF"/>
<path d="M185.656 16.707L185.88 15.2817L185.38 15.2701H182.994L184.652 4.75268C184.657 4.72093 184.674 4.69132 184.699 4.6703C184.723 4.64928 184.754 4.6377 184.787 4.6377H188.812C190.148 4.6377 191.07 4.91572 191.551 5.46448C191.777 5.72191 191.92 5.99093 191.99 6.28697C192.063 6.59762 192.064 6.96874 191.993 7.4214L191.988 7.45443V7.74447L192.214 7.87233C192.404 7.97315 192.555 8.08857 192.67 8.22072C192.864 8.44082 192.988 8.72057 193.041 9.05222C193.096 9.39332 193.078 9.7992 192.988 10.2587C192.885 10.7873 192.719 11.2477 192.494 11.6244C192.287 11.9715 192.024 12.2593 191.711 12.4825C191.413 12.6945 191.058 12.8554 190.657 12.9584C190.268 13.0595 189.825 13.1107 189.338 13.1107H189.025C188.801 13.1107 188.584 13.1913 188.413 13.336C188.242 13.4835 188.128 13.6851 188.094 13.9057L188.07 14.034L187.674 16.546L187.656 16.6383C187.651 16.6676 187.643 16.6821 187.631 16.692C187.62 16.7009 187.605 16.707 187.59 16.707H185.656Z" fill="#4633AF"/>
<path d="M192.427 7.48926C192.415 7.56605 192.402 7.64457 192.386 7.72523C191.855 10.4502 190.04 11.3915 187.721 11.3915H186.54C186.256 11.3915 186.017 11.5974 185.973 11.8772L185.369 15.7112L185.197 16.798C185.169 16.9816 185.31 17.1473 185.495 17.1473H187.59C187.838 17.1473 188.048 16.9671 188.087 16.7225L188.108 16.6161L188.502 14.1138L188.528 13.9766C188.566 13.7312 188.777 13.551 189.025 13.551H189.339C191.367 13.551 192.956 12.7272 193.42 10.3433C193.614 9.34748 193.514 8.51598 193.001 7.93118C192.845 7.75484 192.653 7.60853 192.427 7.48926Z" fill="#CECECE"/>
<path d="M191.872 7.26765C191.791 7.24404 191.707 7.22259 191.621 7.20329C191.535 7.18441 191.447 7.16768 191.356 7.15309C191.037 7.1016 190.689 7.07715 190.315 7.07715H187.161C187.083 7.07715 187.009 7.09474 186.943 7.12649C186.798 7.19642 186.689 7.33415 186.663 7.50277L185.992 11.753L185.973 11.877C186.017 11.5972 186.256 11.3913 186.54 11.3913H187.72C190.039 11.3913 191.855 10.4495 192.386 7.72502C192.402 7.64435 192.415 7.56584 192.427 7.48904C192.293 7.41782 192.147 7.35689 191.991 7.30497C191.952 7.2921 191.912 7.27966 191.872 7.26765Z" fill="#4633AF"/>
<path d="M186.663 7.5025C186.689 7.33388 186.798 7.19616 186.943 7.12665C187.01 7.09489 187.083 7.0773 187.16 7.0773H190.315C190.689 7.0773 191.037 7.10176 191.356 7.15325C191.447 7.16784 191.535 7.18457 191.621 7.20344C191.707 7.22276 191.791 7.24421 191.872 7.2678C191.912 7.27982 191.952 7.29226 191.991 7.30471C192.148 7.35662 192.293 7.41797 192.428 7.48877C192.585 6.48178 192.426 5.79615 191.882 5.17531C191.282 4.49183 190.198 4.19922 188.812 4.19922H184.787C184.504 4.19922 184.263 4.40515 184.219 4.68533L182.543 15.3108C182.51 15.5211 182.672 15.7108 182.884 15.7108H185.368L185.992 11.7527L186.663 7.5025Z" fill="#4633AF"/>
<path fill-rule="evenodd" clip-rule="evenodd" d="M102.578 20.6311C101.18 21.8376 99.3663 22.5659 97.3846 22.5659C92.9628 22.5659 89.3782 18.9397 89.3782 14.4666C89.3782 9.9934 92.9628 6.36719 97.3846 6.36719C99.3663 6.36719 101.18 7.09552 102.578 8.302C103.976 7.09552 105.79 6.36719 107.771 6.36719C112.193 6.36719 115.778 9.9934 115.778 14.4666C115.778 18.9397 112.193 22.5659 107.771 22.5659C105.79 22.5659 103.976 21.8376 102.578 20.6311Z" fill="#A9A9A9"/>
<path fill-rule="evenodd" clip-rule="evenodd" d="M102.578 20.6311C104.299 19.1455 105.391 16.935 105.391 14.4666C105.391 11.9981 104.299 9.78757 102.578 8.302C103.976 7.09552 105.79 6.36719 107.771 6.36719C112.193 6.36719 115.778 9.9934 115.778 14.4666C115.778 18.9397 112.193 22.5659 107.771 22.5659C105.79 22.5659 103.976 21.8376 102.578 20.6311Z" fill="#D9D9D9"/>
<path fill-rule="evenodd" clip-rule="evenodd" d="M102.578 20.6298C104.299 19.1442 105.391 16.9337 105.391 14.4653C105.391 11.9969 104.299 9.78636 102.578 8.30078C100.856 9.78636 99.7649 11.9969 99.7649 14.4653C99.7649 16.9337 100.856 19.1442 102.578 20.6298Z" fill="#4633AF"/>
<path fill-rule="evenodd" clip-rule="evenodd" d="M133.624 10.4727L129.782 18.9754H134.382L134.952 17.6197H136.255L136.826 18.9754H141.888V17.9407L142.34 18.9754H144.959L145.41 17.9188V18.9754H155.939L157.22 17.6549L158.418 18.9754L163.827 18.9863L159.972 14.7477L163.827 10.4727H158.502L157.256 11.7687L156.095 10.4727H144.64L143.656 12.6673L142.65 10.4727H138.06V11.4722L137.549 10.4727H133.624ZM149.348 11.6798H155.394L157.244 13.6774L159.153 11.6798H161.002L158.192 14.7463L161.002 17.7774H159.069L157.22 15.7566L155.301 17.7774H149.348V11.6798ZM150.841 14.0573V12.9435V12.9425H154.614L156.26 14.7237L154.541 16.5146H150.841V15.2987H154.14V14.0573H150.841ZM134.514 11.6798H136.756L139.305 17.4455V11.6798H141.761L143.729 15.8138L145.544 11.6798H147.987V17.781H146.5L146.488 13.0001L144.32 17.781H142.99L140.81 13.0001V17.781H137.751L137.171 16.4132H134.038L133.459 17.7798H131.82L134.514 11.6798ZM134.573 15.1488L135.605 12.7122L136.636 15.1488H134.573Z" fill="#4633AF"/>
<path fill-rule="evenodd" clip-rule="evenodd" d="M55.1244 19.5754H52.6366L50.771 12.4582C50.6825 12.1308 50.4944 11.8414 50.2179 11.705C49.5277 11.3622 48.7672 11.0894 47.9375 10.9518V10.6778H51.9452C52.4983 10.6778 52.9131 11.0894 52.9822 11.5674L53.9502 16.7013L56.4368 10.6778H58.8555L55.1244 19.5754ZM60.2383 19.5754H57.8888L59.8234 10.6778H62.173L60.2383 19.5754ZM65.2126 13.1428C65.2817 12.6636 65.6966 12.3895 66.1805 12.3895C66.9411 12.3207 67.7695 12.4583 68.4609 12.8L68.8757 10.8843C68.1844 10.6103 67.4238 10.4727 66.7336 10.4727C64.4533 10.4727 62.7939 11.7051 62.7939 13.4156C62.7939 14.7169 63.9693 15.4001 64.799 15.8117C65.6966 16.2221 66.0422 16.4962 65.9731 16.9066C65.9731 17.5222 65.2817 17.7962 64.5915 17.7962C63.7619 17.7962 62.9322 17.591 62.1729 17.2482L61.758 19.1651C62.5877 19.5067 63.4853 19.6443 64.315 19.6443C66.8719 19.7119 68.4609 18.4807 68.4609 16.6326C68.4609 14.3053 65.2126 14.1688 65.2126 13.1428V13.1428ZM76.6837 19.5754L74.8182 10.6778H72.8144C72.3995 10.6778 71.9847 10.9518 71.8464 11.3622L68.3919 19.5754H70.8105L71.2933 18.2753H74.2651L74.5416 19.5754H76.6837ZM73.16 13.0742L73.8502 16.4276H71.9155L73.16 13.0742Z" fill="#4633AF"/>
<g clip-path="url(#clip0_198_410)">
<path d="M5.8667 6.36719H6.1927V15.0232H5.8667V6.36719ZM6.51871 6.36719H6.84471V15.0232H6.51871V6.36719ZM8.47618 6.36719H8.80218V15.0232H8.47618V6.36719ZM14.8218 6.36719H15.1478V15.0232H14.8218V6.36719ZM16.9432 6.36719H17.2692V15.0232H16.9432V6.36719ZM19.0004 6.36719H19.3264V15.0232H19.0004V6.36719ZM19.5305 6.36719H19.8565V15.0232H19.5309L19.5305 6.36719ZM20.0614 6.36719H20.3874V15.0232H20.0614V6.36719ZM20.6581 6.36719H20.9841V15.0232H20.6582L20.6581 6.36719ZM21.2546 6.36719H21.5806V15.0232H21.2546V6.36719ZM22.9131 6.36719H23.2391V15.0232H22.9126L22.9131 6.36719ZM27.0251 6.36719H27.3511V15.0232H27.0251V6.36719ZM31.3144 6.36719H31.6403V15.0232H31.3143L31.3144 6.36719ZM32.4876 6.36719H32.8136V15.0232H32.4876V6.36719ZM33.3358 6.36719H33.6618V15.0232H33.3358V6.36719ZM33.8577 6.36719H34.1837V15.0232H33.8577V6.36719ZM10.6291 6.36719H10.9551V15.0232H10.6291V6.36719ZM7.36692 6.36719H7.95397V15.0232H7.36692V6.36719ZM11.2409 6.36719H11.8278V15.0232H11.2409V6.36719ZM13.9611 6.36719H14.548V15.0232H13.9611V6.36719ZM15.3537 6.36719H15.9407V15.0232H15.3537V6.36719ZM17.5423 6.36719H18.1293V15.0232H17.5423V6.36719ZM23.782 6.36719H24.695V15.0232H23.782V6.36719ZM24.9746 6.36719H25.6916V15.0232H24.9738L24.9746 6.36719ZM26.2329 6.36719H26.8199V15.0232H26.2329V6.36719ZM27.8969 6.36719H28.8756V15.0232H27.8969V6.36719ZM29.8134 6.36719H30.7922V15.0232H29.8134V6.36719ZM9.12852 6.36719H10.3024V15.0232H9.12852V6.36719ZM12.1711 6.36719H13.0841V15.0232H12.1711V6.36719Z" fill="#4633AF"/>
<path d="M6.28882 22.7078V17.7534H8.14797C8.45864 17.7414 8.76853 17.7925 9.0589 17.9036C9.28147 17.9988 9.46909 18.1605 9.59595 18.3667C9.72169 18.5617 9.78917 18.7886 9.79048 19.0207C9.7905 19.2323 9.73076 19.4396 9.61816 19.6188C9.4913 19.8162 9.31071 19.9732 9.09763 20.0714C9.37108 20.1417 9.61406 20.2994 9.78959 20.5206C9.95202 20.7365 10.0371 21.0008 10.0311 21.2709C10.033 21.4951 9.98279 21.7168 9.88435 21.9182C9.80112 22.0989 9.67611 22.2571 9.51962 22.3798C9.35673 22.4967 9.1723 22.5802 8.97698 22.6254C8.71509 22.6854 8.44685 22.7133 8.17821 22.7084L6.28882 22.7078ZM6.94507 19.8354H8.0165C8.22574 19.8436 8.43515 19.8243 8.63937 19.7779C8.78885 19.7401 8.92138 19.6533 9.01593 19.5315C9.10397 19.4049 9.14843 19.2531 9.14261 19.0989C9.14562 18.9459 9.10456 18.7953 9.0243 18.665C8.94773 18.5413 8.82869 18.4498 8.68948 18.4075C8.44247 18.3507 8.18892 18.3274 7.93569 18.3382H6.94529L6.94507 19.8354ZM6.94507 22.1234H8.17843C8.32763 22.1273 8.4769 22.1194 8.62486 22.0999C8.75869 22.0782 8.88717 22.0312 9.00344 21.9614C9.10968 21.8928 9.19588 21.7973 9.25332 21.6846C9.32039 21.5566 9.3542 21.4138 9.35165 21.2693C9.35625 21.0969 9.30664 20.9275 9.20979 20.7848C9.11418 20.6478 8.97555 20.5467 8.81593 20.4976C8.57991 20.4337 8.33562 20.4057 8.09127 20.4146H6.94507V22.1234ZM10.9893 20.2954C10.9477 19.5893 11.1855 18.8953 11.6514 18.3632C11.871 18.1326 12.137 17.9512 12.4318 17.8309C12.7266 17.7107 13.0436 17.6543 13.3618 17.6655C13.7963 17.6595 14.2242 17.773 14.5986 17.9936C14.9626 18.2088 15.2548 18.5269 15.4382 18.9079C15.636 19.3228 15.7348 19.778 15.7268 20.2375C15.7352 20.7048 15.6312 21.1672 15.4237 21.5859C15.2353 21.9669 14.9346 22.281 14.562 22.4856C14.1937 22.6887 13.7796 22.794 13.359 22.7916C12.919 22.7988 12.4858 22.682 12.109 22.4545C11.7465 22.2347 11.4561 21.9138 11.2736 21.5312C11.0854 21.1465 10.9881 20.7236 10.9893 20.2954ZM11.6655 20.3057C11.6373 20.8213 11.8111 21.3275 12.15 21.717C12.3028 21.8844 12.4898 22.017 12.6983 22.106C12.9068 22.1949 13.1319 22.2381 13.3586 22.2326C13.5865 22.2384 13.813 22.1948 14.0226 22.1049C14.2321 22.0149 14.4197 21.8807 14.5725 21.7114C14.9144 21.2981 15.0855 20.7697 15.0508 20.2344C15.0599 19.872 14.9912 19.5118 14.8494 19.1782C14.7244 18.8904 14.5161 18.6467 14.2514 18.4784C13.9868 18.3122 13.6799 18.2259 13.3675 18.23C13.1461 18.2266 12.9262 18.2671 12.7206 18.3492C12.5149 18.4313 12.3276 18.5533 12.1694 18.7082C11.9822 18.9267 11.8411 19.1808 11.7545 19.4551C11.6679 19.7295 11.6376 20.0186 11.6655 20.305V20.3057ZM16.802 22.7082V17.7534H17.4574V22.1229H19.8973V22.7078L16.802 22.7082ZM20.9479 22.7082V17.7534H24.5305V18.3382H21.6034V19.8561H24.3443V20.4374H21.6034V22.1235H24.6455V22.7084L20.9479 22.7082ZM27.068 22.7082V18.3382H25.4349V17.7534H29.3621V18.3382H27.723V22.7078L27.068 22.7082ZM29.9667 20.2954C29.9256 19.5892 30.1641 18.8953 30.6305 18.3636C30.85 18.133 31.116 17.9515 31.4108 17.8313C31.7056 17.711 32.0226 17.6546 32.3408 17.6658C32.7753 17.6599 33.2031 17.7734 33.5776 17.9939C33.9416 18.2091 34.2338 18.5272 34.4172 18.9082C34.615 19.3231 34.7138 19.7783 34.7058 20.2379C34.7139 20.7052 34.6097 21.1676 34.402 21.5862C34.213 21.9679 33.9112 22.2822 33.5375 22.4866C33.1692 22.6897 32.755 22.795 32.3345 22.7926C31.8942 22.7998 31.4607 22.6827 31.0838 22.4548C30.722 22.2348 30.4324 21.9139 30.2505 21.5315C30.0624 21.1466 29.9653 20.7237 29.9667 20.2954ZM30.6429 20.3057C30.6147 20.8213 30.7885 21.3275 31.1274 21.717C31.2802 21.8844 31.4672 22.017 31.6757 22.106C31.8842 22.1949 32.1093 22.2381 32.336 22.2326C32.5646 22.2391 32.7919 22.1959 33.0022 22.1061C33.2125 22.0162 33.4008 21.8818 33.5541 21.7121C33.896 21.2987 34.0671 20.7704 34.0324 20.2351C34.0395 19.8722 33.9687 19.512 33.8247 19.1788C33.6997 18.8911 33.4914 18.6474 33.2267 18.4791C32.9623 18.313 32.6555 18.2267 32.3433 18.2306C32.1219 18.2273 31.902 18.2678 31.6964 18.3499C31.4907 18.432 31.3034 18.554 31.1451 18.7089C30.9583 18.9274 30.8175 19.1814 30.7312 19.4556C30.6449 19.7299 30.6149 20.0187 30.6429 20.3048V20.3057Z" fill="#4633AF"/>
</g>
<defs>
<clipPath id="clip0_198_410">
<rect width="28.8396" height="16.4264" fill="white" transform="translate(5.8667 6.36719)"/>
</clipPath>
</defs>
</svg>
