<svg width="53" height="66" viewBox="0 0 53 66" fill="none" xmlns="http://www.w3.org/2000/svg">
<path d="M41.4304 35.2921C39.0426 35.2838 36.719 36.0654 34.8216 37.5152C32.9242 38.9649 31.5594 41.0014 30.9398 43.3075C30.3202 45.6135 30.4806 48.0598 31.396 50.2652C32.3113 52.4707 33.9303 54.3115 36.0008 55.5011V63.1922C36.0006 63.5795 36.1153 63.9581 36.3304 64.2801C36.5454 64.6022 36.8512 64.8532 37.209 65.0015C37.5668 65.1497 37.9605 65.1885 38.3403 65.1129C38.7201 65.0373 39.069 64.8507 39.3427 64.5767L41.4304 62.4918L43.5181 64.5767C43.7918 64.8507 44.1407 65.0373 44.5205 65.1129C44.9003 65.1885 45.2941 65.1497 45.6518 65.0015C46.0096 64.8532 46.3154 64.6022 46.5305 64.2801C46.7455 63.9581 46.8602 63.5795 46.86 63.1922V55.5011C48.9305 54.3115 50.5495 52.4707 51.4648 50.2652C52.3802 48.0598 52.5406 45.6135 51.921 43.3075C51.3014 41.0014 49.9367 38.9649 48.0392 37.5152C46.1418 36.0654 43.8183 35.2838 41.4304 35.2921Z" fill="#4633AF"/>
<path d="M25.1416 46.1518C25.1382 43.2915 25.889 40.4808 27.3183 38.0031C28.7476 35.5254 30.8048 33.4683 33.2825 32.0392C35.7603 30.6101 38.571 29.8595 41.4314 29.863C44.2918 29.8665 47.1006 30.624 49.5749 32.0592V13.5741C49.5706 9.97532 48.1391 6.52521 45.5944 3.98051C43.0497 1.43582 39.5996 0.00431074 36.0008 0L14.2823 0C10.6836 0.00431074 7.23346 1.43582 4.68876 3.98051C2.14407 6.52521 0.712563 9.97532 0.708252 13.5741V46.1518C0.712563 49.7506 2.14407 53.2007 4.68876 55.7454C7.23346 58.2901 10.6836 59.7216 14.2823 59.7259H30.5712V58.2599C28.8638 56.7385 27.4974 54.8732 26.5616 52.7865C25.6259 50.6997 25.1419 48.4387 25.1416 46.1518ZM14.2823 10.8593H36.0008C36.7208 10.8593 37.4114 11.1453 37.9205 11.6544C38.4296 12.1635 38.7156 12.8541 38.7156 13.5741C38.7156 14.2941 38.4296 14.9846 37.9205 15.4937C37.4114 16.0029 36.7208 16.2889 36.0008 16.2889H14.2823C13.5623 16.2889 12.8718 16.0029 12.3627 15.4937C11.8535 14.9846 11.5675 14.2941 11.5675 13.5741C11.5675 12.8541 11.8535 12.1635 12.3627 11.6544C12.8718 11.1453 13.5623 10.8593 14.2823 10.8593ZM14.2823 21.7185H36.0008C36.7208 21.7185 37.4114 22.0045 37.9205 22.5137C38.4296 23.0228 38.7156 23.7133 38.7156 24.4333C38.7156 25.1533 38.4296 25.8439 37.9205 26.353C37.4114 26.8621 36.7208 27.1481 36.0008 27.1481H14.2823C13.5623 27.1481 12.8718 26.8621 12.3627 26.353C11.8535 25.8439 11.5675 25.1533 11.5675 24.4333C11.5675 23.7133 11.8535 23.0228 12.3627 22.5137C12.8718 22.0045 13.5623 21.7185 14.2823 21.7185ZM22.4268 38.0074H14.2823C13.5623 38.0074 12.8718 37.7214 12.3627 37.2122C11.8535 36.7031 11.5675 36.0126 11.5675 35.2926C11.5675 34.5726 11.8535 33.882 12.3627 33.3729C12.8718 32.8638 13.5623 32.5778 14.2823 32.5778H22.4268C23.1468 32.5778 23.8373 32.8638 24.3464 33.3729C24.8555 33.882 25.1416 34.5726 25.1416 35.2926C25.1416 36.0126 24.8555 36.7031 24.3464 37.2122C23.8373 37.7214 23.1468 38.0074 22.4268 38.0074Z" fill="#4633AF"/>
</svg>
