<svg width="365" height="369" viewBox="0 0 365 369" fill="none" xmlns="http://www.w3.org/2000/svg">
<path d="M182.5 368.975C283.292 368.975 365 286.377 365 184.487C365 82.5978 283.292 0 182.5 0C81.708 0 0 82.5978 0 184.487C0 286.377 81.708 368.975 182.5 368.975Z" fill="#0A1732"/>
<path d="M182.5 288.542C239.356 288.542 285.448 241.955 285.448 184.488C285.448 127.02 239.356 80.4336 182.5 80.4336C125.644 80.4336 79.5527 127.02 79.5527 184.488C79.5527 241.955 125.644 288.542 182.5 288.542Z" stroke="#F9F9F9" stroke-miterlimit="10"/>
<path d="M182.5 323.871C258.646 323.871 320.374 261.467 320.374 184.487C320.374 107.508 258.646 45.1035 182.5 45.1035C106.354 45.1035 44.626 107.508 44.626 184.487C44.626 261.467 106.354 323.871 182.5 323.871Z" stroke="#F9F9F9" stroke-miterlimit="10"/>
<path d="M182.5 265.048C226.506 265.048 262.18 228.98 262.18 184.487C262.18 139.995 226.506 103.927 182.5 103.927C138.494 103.927 102.82 139.995 102.82 184.487C102.82 228.98 138.494 265.048 182.5 265.048Z" fill="white"/>
<path d="M170.36 162V189.63C168.9 188.67 167.15 188.1 165.27 188.1C160.15 188.1 156 192.25 156 197.37C156 202.49 160.15 206.64 165.27 206.64C169.96 206.64 173.83 203.15 174.44 198.63H174.53V176.41H205.16V189.63C203.7 188.67 201.95 188.1 200.07 188.1C194.95 188.1 190.8 192.25 190.8 197.37C190.8 202.49 194.95 206.64 200.07 206.64C204.76 206.64 208.63 203.15 209.24 198.63H209.33V162H170.36Z" fill="black"/>
</svg>
