<svg width="2560" height="50" viewBox="0 0 2560 50" fill="none" xmlns="http://www.w3.org/2000/svg">
<path d="M131.741 0H181.747V50H131.741V0Z" fill="#E86600"/>
<path d="M134.239 24.8947L142.681 29.4975L138.475 38.1439L148.014 36.9031L149.687 46.3744L156.676 39.7591L163.599 46.4391L165.362 36.984L174.888 38.3149L170.765 29.6292L179.249 25.105L170.807 20.5022L175.013 11.8558L165.473 13.0966L163.798 3.62524L156.812 10.2406L149.888 3.56055L148.125 13.0157L138.597 11.6848L142.722 20.3705L134.239 24.8947Z" fill="white"/>
<path d="M231.753 0H282V50H231.753V0Z" fill="white"/>
<path d="M181.747 0H231.753V50H181.747V0Z" fill="#E4007F"/>
<path d="M235.469 18.8803V12.0108C234.554 11.4262 233.946 10.4026 233.946 9.23572C233.946 7.41724 235.421 5.94305 237.239 5.94305C239.058 5.94305 240.533 7.41724 240.533 9.23572C240.533 10.4812 239.842 11.5648 238.82 12.124V18.8803H259.501L274.036 5.47168V41.1827L259.503 27.6331V27.915H253.005C253.716 29.3776 254.114 31.0181 254.114 32.7488C254.114 38.8674 249.136 43.8468 243.015 43.8468H231.751V40.4964H243.015C247.285 40.4964 250.761 37.0212 250.761 32.7511C250.761 30.9234 250.121 29.2436 249.058 27.9173H231.751V18.8827H235.467L235.469 18.8803Z" fill="#6CD4FF"/>
<path d="M181.747 18.8802H214.202V12.1238C213.183 11.5647 212.489 10.481 212.489 9.23554C212.489 7.41706 213.964 5.94287 215.782 5.94287C217.601 5.94287 219.076 7.41706 219.076 9.23554C219.076 10.4024 218.468 11.426 217.553 12.0106V18.8825H224.834V12.0684C223.866 11.4953 223.217 10.444 223.217 9.23554C223.217 7.41706 224.691 5.94287 226.51 5.94287C228.328 5.94287 229.803 7.41706 229.803 9.23554C229.803 10.4417 229.151 11.493 228.185 12.0661V18.8802H231.751V27.9656H202.134C201.094 29.285 200.468 30.944 200.468 32.7486C200.468 37.0187 203.944 40.4939 208.214 40.4939H231.749V43.8443H208.214C202.095 43.8443 197.115 38.8672 197.115 32.7463C197.115 31.0341 197.505 29.4121 198.201 27.9633H181.742V18.8778L181.747 18.8802Z" fill="#141D36"/>
<path d="M32.5186 0.0207062V49.9814H-17.4485V0.0207062H32.5186Z" fill="#F2B900"/>
<path d="M-17.4485 18.9795H32.5186V31.5586H-17.4485V18.9795Z" fill="#E86600"/>
<path d="M7.53502 12.7226C5.75459 12.7226 4.31128 11.2794 4.31128 9.49923C4.31128 7.71902 5.75459 6.27588 7.53502 6.27588C9.31545 6.27588 10.7588 7.71902 10.7588 9.49923C10.7588 11.2794 9.31545 12.7226 7.53502 12.7226Z" fill="#E86600"/>
<path d="M20.9777 12.7226C19.1972 12.7226 17.7539 11.2794 17.7539 9.49923C17.7539 7.71902 19.1972 6.27588 20.9777 6.27588C22.7581 6.27588 24.2014 7.71902 24.2014 9.49923C24.2014 11.2794 22.7581 12.7226 20.9777 12.7226Z" fill="#E86600"/>
<path d="M7.01956 44.2114C5.26214 43.9262 4.06873 42.2705 4.354 40.5133C4.63927 38.7561 6.29519 37.5628 8.05262 37.848C9.81005 38.1333 11.0035 39.789 10.7182 41.5462C10.4329 43.3034 8.77699 44.4967 7.01956 44.2114Z" fill="#E86600"/>
<path d="M17.7391 41.2763C17.6127 39.5006 18.95 37.9587 20.7259 37.8323C22.5019 37.706 24.044 39.043 24.1704 40.8187C24.2967 42.5944 22.9595 44.1364 21.1835 44.2627C19.4076 44.3891 17.8655 43.052 17.7391 41.2763Z" fill="#E86600"/>
<path d="M82.1273 0.0300331V49.97H32.5185V0.0300331H82.1273Z" fill="#6CD4FF"/>
<path d="M67.3489 4.24219H78.7972V7.7405H67.3489V4.24219Z" fill="white"/>
<path d="M67.3489 10.5205H78.7972V14.0188H67.3489V10.5205Z" fill="white"/>
<path d="M67.3489 16.8008H78.7972V20.2991H67.3489V16.8008Z" fill="white"/>
<path d="M67.3489 23.0786H78.7972V26.5769H67.3489V23.0786Z" fill="white"/>
<path d="M67.3489 29.3567H78.7972V32.855H67.3489V29.3567Z" fill="white"/>
<path d="M67.3489 35.6348H78.7972V39.1331H67.3489V35.6348Z" fill="white"/>
<path d="M67.3489 41.9126H78.7972V45.4109H67.3489V41.9126Z" fill="white"/>
<path d="M51.3757 35.6348H62.8241V39.1331H51.3757V35.6348Z" fill="white"/>
<path d="M51.3757 41.9126H62.8241V45.4109H51.3757V41.9126Z" fill="white"/>
<path d="M35.8508 23.0786H47.2992V26.5769H35.8508V23.0786Z" fill="white"/>
<path d="M35.8508 29.3567H47.2992V32.855H35.8508V29.3567Z" fill="white"/>
<path d="M35.8508 35.6348H47.2992V39.1331H35.8508V35.6348Z" fill="white"/>
<path d="M35.8508 41.9126H47.2992V45.4109H35.8508V41.9126Z" fill="white"/>
<path d="M131.738 0.0278473V49.9678H82.1296V0.0278473H131.738Z" fill="#F2B900"/>
<path d="M89.1064 43.8955L91.5976 45.3488L97.6106 34.8216L95.1194 33.3682L89.1064 43.8955Z" fill="#E4007F"/>
<path d="M86.3424 46.0489C86.3424 47.701 87.6689 49.0412 89.3028 49.0412C90.9366 49.0412 92.2631 47.701 92.2631 46.0489C92.2631 44.3968 90.9366 43.0566 89.3028 43.0566C87.6689 43.0566 86.3424 44.3968 86.3424 46.0489Z" fill="white"/>
<path d="M125.212 43.8955L122.719 45.3488L116.708 34.8216L119.199 33.3682L125.212 43.8955Z" fill="#E4007F"/>
<path d="M127.976 46.0489C127.976 47.701 126.65 49.0412 125.016 49.0412C123.382 49.0412 122.056 47.701 122.056 46.0489C122.056 44.3968 123.382 43.0566 125.016 43.0566C126.65 43.0566 127.976 44.3968 127.976 46.0489Z" fill="white"/>
<path d="M107.159 41.2057C97.0256 41.2057 88.8106 32.9016 88.8106 22.6581C88.8106 12.4146 97.0256 4.1106 107.159 4.1106C117.293 4.1106 125.508 12.4146 125.508 22.6581C125.508 32.9016 117.293 41.2057 107.159 41.2057Z" fill="white"/>
<path d="M107.159 37.4279C100.067 37.4279 94.1557 32.3191 92.8292 25.542H121.492C120.165 32.3168 114.254 37.4279 107.162 37.4279H107.159Z" fill="#141D36"/>
<path d="M107.159 7.88867C114.196 7.88867 120.07 12.9189 121.459 19.6152H92.8592C94.2481 12.9189 100.122 7.88867 107.159 7.88867Z" fill="#141D36"/>
<path d="M92.8593 19.6128H121.459C121.663 20.5948 121.771 21.6138 121.771 22.6559C121.771 23.6426 121.674 24.6084 121.492 25.5419H92.8292C92.6466 24.6084 92.5496 23.6449 92.5496 22.6559C92.5496 21.6115 92.6582 20.5948 92.8616 19.6128H92.8593Z" fill="#E4007F"/>
<path d="M630.741 0H680.747V50H630.741V0Z" fill="#E86600"/>
<path d="M633.239 24.8947L641.681 29.4975L637.475 38.1439L647.014 36.9031L648.687 46.3744L655.676 39.7591L662.599 46.4391L664.362 36.984L673.888 38.3149L669.765 29.6292L678.249 25.105L669.807 20.5022L674.013 11.8558L664.473 13.0966L662.798 3.62524L655.812 10.2406L648.888 3.56055L647.125 13.0157L637.597 11.6848L641.722 20.3705L633.239 24.8947Z" fill="white"/>
<path d="M730.753 0H781V50H730.753V0Z" fill="white"/>
<path d="M680.747 0H730.753V50H680.747V0Z" fill="#E4007F"/>
<path d="M734.469 18.8803V12.0108C733.554 11.4262 732.946 10.4026 732.946 9.23572C732.946 7.41724 734.421 5.94305 736.239 5.94305C738.058 5.94305 739.532 7.41724 739.532 9.23572C739.532 10.4812 738.841 11.5648 737.82 12.124V18.8803H758.501L773.036 5.47168V41.1827L758.503 27.6331V27.915H752.005C752.716 29.3776 753.114 31.0181 753.114 32.7488C753.114 38.8674 748.136 43.8468 742.014 43.8468H730.751V40.4964H742.014C746.285 40.4964 749.761 37.0212 749.761 32.7511C749.761 30.9234 749.121 29.2436 748.057 27.9173H730.751V18.8827H734.467L734.469 18.8803Z" fill="#6CD4FF"/>
<path d="M680.747 18.8802H713.202V12.1238C712.183 11.5647 711.489 10.481 711.489 9.23554C711.489 7.41706 712.964 5.94287 714.782 5.94287C716.601 5.94287 718.076 7.41706 718.076 9.23554C718.076 10.4024 717.468 11.426 716.553 12.0106V18.8825H723.834V12.0684C722.866 11.4953 722.217 10.444 722.217 9.23554C722.217 7.41706 723.691 5.94287 725.51 5.94287C727.328 5.94287 728.803 7.41706 728.803 9.23554C728.803 10.4417 728.151 11.493 727.185 12.0661V18.8802H730.751V27.9656H701.134C700.094 29.285 699.468 30.944 699.468 32.7486C699.468 37.0187 702.944 40.4939 707.214 40.4939H730.749V43.8443H707.214C701.095 43.8443 696.115 38.8672 696.115 32.7463C696.115 31.0341 696.505 29.4121 697.201 27.9633H680.742V18.8778L680.747 18.8802Z" fill="#141D36"/>
<path d="M531.519 0.0207062V49.9814H481.552V0.0207062H531.519Z" fill="#F2B900"/>
<path d="M481.552 18.9795H531.519V31.5586H481.552V18.9795Z" fill="#E86600"/>
<path d="M506.535 12.7226C504.755 12.7226 503.311 11.2794 503.311 9.49923C503.311 7.71902 504.755 6.27588 506.535 6.27588C508.315 6.27588 509.759 7.71902 509.759 9.49923C509.759 11.2794 508.315 12.7226 506.535 12.7226Z" fill="#E86600"/>
<path d="M519.978 12.7226C518.197 12.7226 516.754 11.2794 516.754 9.49923C516.754 7.71902 518.197 6.27588 519.978 6.27588C521.758 6.27588 523.201 7.71902 523.201 9.49923C523.201 11.2794 521.758 12.7226 519.978 12.7226Z" fill="#E86600"/>
<path d="M493.092 12.7226C491.312 12.7226 489.868 11.2794 489.868 9.49923C489.868 7.71902 491.312 6.27588 493.092 6.27588C494.873 6.27588 496.316 7.71902 496.316 9.49923C496.316 11.2794 494.873 12.7226 493.092 12.7226Z" fill="#E86600"/>
<path d="M506.019 44.2114C504.262 43.9262 503.069 42.2705 503.354 40.5133C503.639 38.7561 505.295 37.5628 507.052 37.848C508.81 38.1333 510.003 39.789 509.718 41.5462C509.433 43.3034 507.777 44.4967 506.019 44.2114Z" fill="#E86600"/>
<path d="M516.739 41.2763C516.613 39.5006 517.95 37.9587 519.726 37.8323C521.502 37.706 523.044 39.043 523.17 40.8187C523.297 42.5944 521.959 44.1364 520.184 44.2627C518.408 44.3891 516.865 43.052 516.739 41.2763Z" fill="#E86600"/>
<path d="M493.052 44.2462C491.272 44.2254 489.845 42.7655 489.866 40.9854C489.887 39.2053 491.347 37.7791 493.127 37.8C494.908 37.8208 496.334 39.2807 496.313 41.0608C496.292 42.8409 494.832 44.267 493.052 44.2462Z" fill="#E86600"/>
<path d="M481.549 49.9814L431.582 49.9814V0.0207253L481.549 0.0207253V49.9814Z" fill="white"/>
<path d="M431.584 0.0185356V49.9792H381.617V0.0185356H431.584Z" fill="white"/>
<path d="M461.28 0.0185547H471.76V36.5221H461.28V0.0185547Z" fill="#6CD4FF"/>
<path d="M441.376 0.0185547H451.856V36.5221H441.376V0.0185547Z" fill="#6CD4FF"/>
<path d="M411.207 0.0185547H421.687V36.5221H411.207V0.0185547Z" fill="#6CD4FF"/>
<path d="M391.303 0.0185547H401.783V36.5221H391.303V0.0185547Z" fill="#6CD4FF"/>
<path d="M381.615 0.0207329V49.9814H331.648V0.0207329H381.615Z" fill="#E4007F"/>
<path d="M346.463 40.8151C342.89 40.8151 339.993 37.9185 339.993 34.3453C339.993 30.7721 342.89 27.8755 346.463 27.8755C350.037 27.8755 352.934 30.7721 352.934 34.3453C352.934 37.9185 350.037 40.8151 346.463 40.8151Z" fill="#F2B900"/>
<path d="M364.368 35.3868C363.795 31.8597 366.19 28.5364 369.718 27.9639C373.245 27.3914 376.569 29.7865 377.142 33.3135C377.714 36.8405 375.319 40.1638 371.791 40.7363C368.264 41.3088 364.94 38.9138 364.368 35.3868Z" fill="#F2B900"/>
<path d="M339.993 9.64941H367.216V19.71H339.993V9.64941Z" fill="#F2B900"/>
<path d="M339.993 17.2651H342.907V35.2235H339.993V17.2651Z" fill="#F2B900"/>
<path d="M364.302 17.2651H367.216V35.2235H364.302V17.2651Z" fill="#F2B900"/>
<path d="M331.967 0.0185089V49.9792H282V0.0185089H331.967Z" fill="#DC5C00"/>
<path d="M285.085 25.0394C285.064 13.0795 294.744 3.36717 306.705 3.3463C318.666 3.32543 328.38 13.0039 328.401 24.9638C328.422 36.9237 318.742 46.6361 306.781 46.6569C294.819 46.6778 285.106 36.9993 285.085 25.0394Z" fill="#1C223A"/>
<path d="M293.432 25.0384C293.412 17.6841 299.358 11.7056 306.713 11.6851C314.068 11.6646 320.047 17.6097 320.068 24.9641C320.088 32.3184 314.142 38.2969 306.787 38.3175C299.432 38.338 293.453 32.3928 293.432 25.0384Z" stroke="#F7F7F7" stroke-width="2" stroke-miterlimit="10"/>
<path d="M297.302 25.072C297.262 19.8502 301.464 15.5854 306.687 15.5462C311.909 15.507 316.175 19.7083 316.214 24.9301C316.253 30.1519 312.051 34.4168 306.829 34.456C301.606 34.4952 297.341 30.2938 297.302 25.072Z" fill="white"/>
<path d="M306.984 29.7705C304.373 29.7705 302.258 27.6342 302.258 24.999C302.258 22.3638 304.373 20.2275 306.984 20.2275C309.594 20.2275 311.709 22.3638 311.709 24.999C311.709 27.6342 309.594 29.7705 306.984 29.7705Z" fill="#D6007D"/>
<path d="M581.127 0.0300331V49.97H531.518V0.0300331H581.127Z" fill="#6CD4FF"/>
<path d="M566.349 4.24219H577.797V7.7405H566.349V4.24219Z" fill="white"/>
<path d="M566.349 10.5205H577.797V14.0188H566.349V10.5205Z" fill="white"/>
<path d="M566.349 16.8008H577.797V20.2991H566.349V16.8008Z" fill="white"/>
<path d="M566.349 23.0786H577.797V26.5769H566.349V23.0786Z" fill="white"/>
<path d="M566.349 29.3567H577.797V32.855H566.349V29.3567Z" fill="white"/>
<path d="M566.349 35.6348H577.797V39.1331H566.349V35.6348Z" fill="white"/>
<path d="M566.349 41.9126H577.797V45.4109H566.349V41.9126Z" fill="white"/>
<path d="M550.376 35.6348H561.824V39.1331H550.376V35.6348Z" fill="white"/>
<path d="M550.376 41.9126H561.824V45.4109H550.376V41.9126Z" fill="white"/>
<path d="M534.851 23.0786H546.299V26.5769H534.851V23.0786Z" fill="white"/>
<path d="M534.851 29.3567H546.299V32.855H534.851V29.3567Z" fill="white"/>
<path d="M534.851 35.6348H546.299V39.1331H534.851V35.6348Z" fill="white"/>
<path d="M534.851 41.9126H546.299V45.4109H534.851V41.9126Z" fill="white"/>
<path d="M630.739 0.0278473V49.9678H581.13V0.0278473H630.739Z" fill="#F2B900"/>
<path d="M588.106 43.8955L590.598 45.3488L596.611 34.8216L594.119 33.3682L588.106 43.8955Z" fill="#E4007F"/>
<path d="M585.342 46.0489C585.342 47.701 586.669 49.0412 588.303 49.0412C589.936 49.0412 591.263 47.701 591.263 46.0489C591.263 44.3968 589.936 43.0566 588.303 43.0566C586.669 43.0566 585.342 44.3968 585.342 46.0489Z" fill="white"/>
<path d="M624.212 43.8955L621.719 45.3488L615.708 34.8216L618.199 33.3682L624.212 43.8955Z" fill="#E4007F"/>
<path d="M626.976 46.0489C626.976 47.701 625.65 49.0412 624.016 49.0412C622.382 49.0412 621.056 47.701 621.056 46.0489C621.056 44.3968 622.382 43.0566 624.016 43.0566C625.65 43.0566 626.976 44.3968 626.976 46.0489Z" fill="white"/>
<path d="M606.159 41.2057C596.025 41.2057 587.81 32.9016 587.81 22.6581C587.81 12.4146 596.025 4.1106 606.159 4.1106C616.293 4.1106 624.508 12.4146 624.508 22.6581C624.508 32.9016 616.293 41.2057 606.159 41.2057Z" fill="white"/>
<path d="M606.159 37.4279C599.067 37.4279 593.156 32.3191 591.829 25.542H620.492C619.165 32.3168 613.254 37.4279 606.162 37.4279H606.159Z" fill="#141D36"/>
<path d="M606.159 7.88867C613.196 7.88867 619.071 12.9189 620.459 19.6152H591.859C593.248 12.9189 599.123 7.88867 606.159 7.88867Z" fill="#141D36"/>
<path d="M591.859 19.6128H620.459C620.663 20.5948 620.771 21.6138 620.771 22.6559C620.771 23.6426 620.674 24.6084 620.492 25.5419H591.829C591.647 24.6084 591.549 23.6449 591.549 22.6559C591.549 21.6115 591.658 20.5948 591.861 19.6128H591.859Z" fill="#E4007F"/>
<path d="M1129.74 0H1179.75V50H1129.74V0Z" fill="#E86600"/>
<path d="M1132.24 24.8947L1140.68 29.4975L1136.47 38.1439L1146.01 36.9031L1147.69 46.3744L1154.68 39.7591L1161.6 46.4391L1163.36 36.984L1172.89 38.3149L1168.77 29.6292L1177.25 25.105L1168.81 20.5022L1173.01 11.8558L1163.47 13.0966L1161.8 3.62524L1154.81 10.2406L1147.89 3.56055L1146.13 13.0157L1136.6 11.6848L1140.72 20.3705L1132.24 24.8947Z" fill="white"/>
<path d="M1229.75 0H1280V50H1229.75V0Z" fill="white"/>
<path d="M1179.75 0H1229.75V50H1179.75V0Z" fill="#E4007F"/>
<path d="M1233.47 18.8803V12.0108C1232.55 11.4262 1231.95 10.4026 1231.95 9.23572C1231.95 7.41724 1233.42 5.94305 1235.24 5.94305C1237.06 5.94305 1238.53 7.41724 1238.53 9.23572C1238.53 10.4812 1237.84 11.5648 1236.82 12.124V18.8803H1257.5L1272.04 5.47168V41.1827L1257.5 27.6331V27.915H1251C1251.72 29.3776 1252.11 31.0181 1252.11 32.7488C1252.11 38.8674 1247.14 43.8468 1241.01 43.8468H1229.75V40.4964H1241.01C1245.29 40.4964 1248.76 37.0212 1248.76 32.7511C1248.76 30.9234 1248.12 29.2436 1247.06 27.9173H1229.75V18.8827H1233.47L1233.47 18.8803Z" fill="#6CD4FF"/>
<path d="M1179.75 18.8802H1212.2V12.1238C1211.18 11.5647 1210.49 10.481 1210.49 9.23554C1210.49 7.41706 1211.96 5.94287 1213.78 5.94287C1215.6 5.94287 1217.08 7.41706 1217.08 9.23554C1217.08 10.4024 1216.47 11.426 1215.55 12.0106V18.8825H1222.83V12.0684C1221.87 11.4953 1221.22 10.444 1221.22 9.23554C1221.22 7.41706 1222.69 5.94287 1224.51 5.94287C1226.33 5.94287 1227.8 7.41706 1227.8 9.23554C1227.8 10.4417 1227.15 11.493 1226.19 12.0661V18.8802H1229.75V27.9656H1200.13C1199.09 29.285 1198.47 30.944 1198.47 32.7486C1198.47 37.0187 1201.94 40.4939 1206.21 40.4939H1229.75V43.8443H1206.21C1200.09 43.8443 1195.11 38.8672 1195.11 32.7463C1195.11 31.0341 1195.51 29.4121 1196.2 27.9633H1179.74V18.8778L1179.75 18.8802Z" fill="#141D36"/>
<path d="M1030.52 0.0207062V49.9814H980.552V0.0207062H1030.52Z" fill="#F2B900"/>
<path d="M980.552 18.9795H1030.52V31.5586H980.552V18.9795Z" fill="#E86600"/>
<path d="M1005.54 12.7226C1003.75 12.7226 1002.31 11.2794 1002.31 9.49923C1002.31 7.71902 1003.75 6.27588 1005.54 6.27588C1007.32 6.27588 1008.76 7.71902 1008.76 9.49923C1008.76 11.2794 1007.32 12.7226 1005.54 12.7226Z" fill="#E86600"/>
<path d="M1018.98 12.7226C1017.2 12.7226 1015.75 11.2794 1015.75 9.49923C1015.75 7.71902 1017.2 6.27588 1018.98 6.27588C1020.76 6.27588 1022.2 7.71902 1022.2 9.49923C1022.2 11.2794 1020.76 12.7226 1018.98 12.7226Z" fill="#E86600"/>
<path d="M992.092 12.7226C990.312 12.7226 988.868 11.2794 988.868 9.49923C988.868 7.71902 990.312 6.27588 992.092 6.27588C993.873 6.27588 995.316 7.71902 995.316 9.49923C995.316 11.2794 993.873 12.7226 992.092 12.7226Z" fill="#E86600"/>
<path d="M1005.02 44.2114C1003.26 43.9262 1002.07 42.2705 1002.35 40.5133C1002.64 38.7561 1004.3 37.5628 1006.05 37.848C1007.81 38.1333 1009 39.789 1008.72 41.5462C1008.43 43.3034 1006.78 44.4967 1005.02 44.2114Z" fill="#E86600"/>
<path d="M1015.74 41.2763C1015.61 39.5006 1016.95 37.9587 1018.73 37.8323C1020.5 37.706 1022.04 39.043 1022.17 40.8187C1022.3 42.5944 1020.96 44.1364 1019.18 44.2627C1017.41 44.3891 1015.87 43.052 1015.74 41.2763Z" fill="#E86600"/>
<path d="M992.052 44.2462C990.272 44.2254 988.845 42.7655 988.866 40.9854C988.887 39.2053 990.347 37.7791 992.127 37.8C993.908 37.8208 995.334 39.2807 995.313 41.0608C995.292 42.8409 993.832 44.267 992.052 44.2462Z" fill="#E86600"/>
<path d="M980.549 49.9814L930.582 49.9814V0.0207253L980.549 0.0207253V49.9814Z" fill="white"/>
<path d="M930.584 0.0185356V49.9792H880.617V0.0185356H930.584Z" fill="white"/>
<path d="M960.28 0.0185547H970.76V36.5221H960.28V0.0185547Z" fill="#6CD4FF"/>
<path d="M940.376 0.0185547H950.856V36.5221H940.376V0.0185547Z" fill="#6CD4FF"/>
<path d="M910.207 0.0185547H920.687V36.5221H910.207V0.0185547Z" fill="#6CD4FF"/>
<path d="M890.303 0.0185547H900.783V36.5221H890.303V0.0185547Z" fill="#6CD4FF"/>
<path d="M880.615 0.0207329V49.9814H830.648V0.0207329H880.615Z" fill="#E4007F"/>
<path d="M845.463 40.8151C841.89 40.8151 838.993 37.9185 838.993 34.3453C838.993 30.7721 841.89 27.8755 845.463 27.8755C849.037 27.8755 851.934 30.7721 851.934 34.3453C851.934 37.9185 849.037 40.8151 845.463 40.8151Z" fill="#F2B900"/>
<path d="M863.368 35.3868C862.795 31.8597 865.19 28.5364 868.718 27.9639C872.245 27.3914 875.569 29.7865 876.142 33.3135C876.714 36.8405 874.319 40.1638 870.791 40.7363C867.264 41.3088 863.94 38.9138 863.368 35.3868Z" fill="#F2B900"/>
<path d="M838.993 9.64941H866.216V19.71H838.993V9.64941Z" fill="#F2B900"/>
<path d="M838.993 17.2651H841.907V35.2235H838.993V17.2651Z" fill="#F2B900"/>
<path d="M863.301 17.2651H866.216V35.2235H863.301V17.2651Z" fill="#F2B900"/>
<path d="M830.967 0.0185089V49.9792H781V0.0185089H830.967Z" fill="#DC5C00"/>
<path d="M784.085 25.0394C784.064 13.0795 793.744 3.36717 805.705 3.3463C817.666 3.32543 827.38 13.0039 827.401 24.9638C827.422 36.9237 817.742 46.6361 805.781 46.6569C793.819 46.6778 784.106 36.9993 784.085 25.0394Z" fill="#1C223A"/>
<path d="M792.432 25.0384C792.412 17.6841 798.357 11.7056 805.713 11.6851C813.068 11.6646 819.047 17.6097 819.068 24.9641C819.088 32.3184 813.142 38.2969 805.787 38.3175C798.432 38.338 792.453 32.3928 792.432 25.0384Z" stroke="#F7F7F7" stroke-width="2" stroke-miterlimit="10"/>
<path d="M796.302 25.072C796.262 19.8502 800.464 15.5854 805.687 15.5462C810.909 15.507 815.175 19.7083 815.214 24.9301C815.253 30.1519 811.051 34.4168 805.829 34.456C800.606 34.4952 796.341 30.2938 796.302 25.072Z" fill="white"/>
<path d="M805.983 29.7705C803.373 29.7705 801.258 27.6342 801.258 24.999C801.258 22.3638 803.373 20.2275 805.983 20.2275C808.593 20.2275 810.709 22.3638 810.709 24.999C810.709 27.6342 808.593 29.7705 805.983 29.7705Z" fill="#D6007D"/>
<path d="M1080.13 0.0300331V49.97H1030.52V0.0300331H1080.13Z" fill="#6CD4FF"/>
<path d="M1065.35 4.24219H1076.8V7.7405H1065.35V4.24219Z" fill="white"/>
<path d="M1065.35 10.5205H1076.8V14.0188H1065.35V10.5205Z" fill="white"/>
<path d="M1065.35 16.8008H1076.8V20.2991H1065.35V16.8008Z" fill="white"/>
<path d="M1065.35 23.0786H1076.8V26.5769H1065.35V23.0786Z" fill="white"/>
<path d="M1065.35 29.3567H1076.8V32.855H1065.35V29.3567Z" fill="white"/>
<path d="M1065.35 35.6348H1076.8V39.1331H1065.35V35.6348Z" fill="white"/>
<path d="M1065.35 41.9126H1076.8V45.4109H1065.35V41.9126Z" fill="white"/>
<path d="M1049.38 35.6348H1060.82V39.1331H1049.38V35.6348Z" fill="white"/>
<path d="M1049.38 41.9126H1060.82V45.4109H1049.38V41.9126Z" fill="white"/>
<path d="M1033.85 23.0786H1045.3V26.5769H1033.85V23.0786Z" fill="white"/>
<path d="M1033.85 29.3567H1045.3V32.855H1033.85V29.3567Z" fill="white"/>
<path d="M1033.85 35.6348H1045.3V39.1331H1033.85V35.6348Z" fill="white"/>
<path d="M1033.85 41.9126H1045.3V45.4109H1033.85V41.9126Z" fill="white"/>
<path d="M1129.74 0.0278473V49.9678H1080.13V0.0278473H1129.74Z" fill="#F2B900"/>
<path d="M1087.11 43.8955L1089.6 45.3488L1095.61 34.8216L1093.12 33.3682L1087.11 43.8955Z" fill="#E4007F"/>
<path d="M1084.34 46.0489C1084.34 47.701 1085.67 49.0412 1087.3 49.0412C1088.94 49.0412 1090.26 47.701 1090.26 46.0489C1090.26 44.3968 1088.94 43.0566 1087.3 43.0566C1085.67 43.0566 1084.34 44.3968 1084.34 46.0489Z" fill="white"/>
<path d="M1123.21 43.8955L1120.72 45.3488L1114.71 34.8216L1117.2 33.3682L1123.21 43.8955Z" fill="#E4007F"/>
<path d="M1125.98 46.0489C1125.98 47.701 1124.65 49.0412 1123.02 49.0412C1121.38 49.0412 1120.06 47.701 1120.06 46.0489C1120.06 44.3968 1121.38 43.0566 1123.02 43.0566C1124.65 43.0566 1125.98 44.3968 1125.98 46.0489Z" fill="white"/>
<path d="M1105.16 41.2057C1095.03 41.2057 1086.81 32.9016 1086.81 22.6581C1086.81 12.4146 1095.03 4.1106 1105.16 4.1106C1115.29 4.1106 1123.51 12.4146 1123.51 22.6581C1123.51 32.9016 1115.29 41.2057 1105.16 41.2057Z" fill="white"/>
<path d="M1105.16 37.4279C1098.07 37.4279 1092.16 32.3191 1090.83 25.542H1119.49C1118.17 32.3168 1112.25 37.4279 1105.16 37.4279H1105.16Z" fill="#141D36"/>
<path d="M1105.16 7.88867C1112.2 7.88867 1118.07 12.9189 1119.46 19.6152H1090.86C1092.25 12.9189 1098.12 7.88867 1105.16 7.88867Z" fill="#141D36"/>
<path d="M1090.86 19.6128H1119.46C1119.66 20.5948 1119.77 21.6138 1119.77 22.6559C1119.77 23.6426 1119.67 24.6084 1119.49 25.5419H1090.83C1090.65 24.6084 1090.55 23.6449 1090.55 22.6559C1090.55 21.6115 1090.66 20.5948 1090.86 19.6128H1090.86Z" fill="#E4007F"/>
<path d="M1628.74 0H1678.75V50H1628.74V0Z" fill="#E86600"/>
<path d="M1631.24 24.8947L1639.68 29.4975L1635.47 38.1439L1645.01 36.9031L1646.69 46.3744L1653.68 39.7591L1660.6 46.4391L1662.36 36.984L1671.89 38.3149L1667.77 29.6292L1676.25 25.105L1667.81 20.5022L1672.01 11.8558L1662.47 13.0966L1660.8 3.62524L1653.81 10.2406L1646.89 3.56055L1645.13 13.0157L1635.6 11.6848L1639.72 20.3705L1631.24 24.8947Z" fill="white"/>
<path d="M1728.75 0H1779V50H1728.75V0Z" fill="white"/>
<path d="M1678.75 0H1728.75V50H1678.75V0Z" fill="#E4007F"/>
<path d="M1732.47 18.8803V12.0108C1731.55 11.4262 1730.95 10.4026 1730.95 9.23572C1730.95 7.41724 1732.42 5.94305 1734.24 5.94305C1736.06 5.94305 1737.53 7.41724 1737.53 9.23572C1737.53 10.4812 1736.84 11.5648 1735.82 12.124V18.8803H1756.5L1771.04 5.47168V41.1827L1756.5 27.6331V27.915H1750C1750.72 29.3776 1751.11 31.0181 1751.11 32.7488C1751.11 38.8674 1746.14 43.8468 1740.01 43.8468H1728.75V40.4964H1740.01C1744.29 40.4964 1747.76 37.0212 1747.76 32.7511C1747.76 30.9234 1747.12 29.2436 1746.06 27.9173H1728.75V18.8827H1732.47L1732.47 18.8803Z" fill="#6CD4FF"/>
<path d="M1678.75 18.8802H1711.2V12.1238C1710.18 11.5647 1709.49 10.481 1709.49 9.23554C1709.49 7.41706 1710.96 5.94287 1712.78 5.94287C1714.6 5.94287 1716.08 7.41706 1716.08 9.23554C1716.08 10.4024 1715.47 11.426 1714.55 12.0106V18.8825H1721.83V12.0684C1720.87 11.4953 1720.22 10.444 1720.22 9.23554C1720.22 7.41706 1721.69 5.94287 1723.51 5.94287C1725.33 5.94287 1726.8 7.41706 1726.8 9.23554C1726.8 10.4417 1726.15 11.493 1725.19 12.0661V18.8802H1728.75V27.9656H1699.13C1698.09 29.285 1697.47 30.944 1697.47 32.7486C1697.47 37.0187 1700.94 40.4939 1705.21 40.4939H1728.75V43.8443H1705.21C1699.09 43.8443 1694.11 38.8672 1694.11 32.7463C1694.11 31.0341 1694.51 29.4121 1695.2 27.9633H1678.74V18.8778L1678.75 18.8802Z" fill="#141D36"/>
<path d="M1529.52 0.0207062V49.9814H1479.55V0.0207062H1529.52Z" fill="#F2B900"/>
<path d="M1479.55 18.9795H1529.52V31.5586H1479.55V18.9795Z" fill="#E86600"/>
<path d="M1504.54 12.7226C1502.75 12.7226 1501.31 11.2794 1501.31 9.49923C1501.31 7.71902 1502.75 6.27588 1504.54 6.27588C1506.32 6.27588 1507.76 7.71902 1507.76 9.49923C1507.76 11.2794 1506.32 12.7226 1504.54 12.7226Z" fill="#E86600"/>
<path d="M1517.98 12.7226C1516.2 12.7226 1514.75 11.2794 1514.75 9.49923C1514.75 7.71902 1516.2 6.27588 1517.98 6.27588C1519.76 6.27588 1521.2 7.71902 1521.2 9.49923C1521.2 11.2794 1519.76 12.7226 1517.98 12.7226Z" fill="#E86600"/>
<path d="M1491.09 12.7226C1489.31 12.7226 1487.87 11.2794 1487.87 9.49923C1487.87 7.71902 1489.31 6.27588 1491.09 6.27588C1492.87 6.27588 1494.32 7.71902 1494.32 9.49923C1494.32 11.2794 1492.87 12.7226 1491.09 12.7226Z" fill="#E86600"/>
<path d="M1504.02 44.2114C1502.26 43.9262 1501.07 42.2705 1501.35 40.5133C1501.64 38.7561 1503.3 37.5628 1505.05 37.848C1506.81 38.1333 1508 39.789 1507.72 41.5462C1507.43 43.3034 1505.78 44.4967 1504.02 44.2114Z" fill="#E86600"/>
<path d="M1514.74 41.2763C1514.61 39.5006 1515.95 37.9587 1517.73 37.8323C1519.5 37.706 1521.04 39.043 1521.17 40.8187C1521.3 42.5944 1519.96 44.1364 1518.18 44.2627C1516.41 44.3891 1514.87 43.052 1514.74 41.2763Z" fill="#E86600"/>
<path d="M1491.05 44.2462C1489.27 44.2254 1487.85 42.7655 1487.87 40.9854C1487.89 39.2053 1489.35 37.7791 1491.13 37.8C1492.91 37.8208 1494.33 39.2807 1494.31 41.0608C1494.29 42.8409 1492.83 44.267 1491.05 44.2462Z" fill="#E86600"/>
<path d="M1479.55 49.9814L1429.58 49.9814V0.0207253L1479.55 0.0207253V49.9814Z" fill="white"/>
<path d="M1429.58 0.0185356V49.9792H1379.62V0.0185356H1429.58Z" fill="white"/>
<path d="M1459.28 0.0185547H1469.76V36.5221H1459.28V0.0185547Z" fill="#6CD4FF"/>
<path d="M1439.38 0.0185547H1449.86V36.5221H1439.38V0.0185547Z" fill="#6CD4FF"/>
<path d="M1409.21 0.0185547H1419.69V36.5221H1409.21V0.0185547Z" fill="#6CD4FF"/>
<path d="M1389.3 0.0185547H1399.78V36.5221H1389.3V0.0185547Z" fill="#6CD4FF"/>
<path d="M1379.61 0.0207329V49.9814H1329.65V0.0207329H1379.61Z" fill="#E4007F"/>
<path d="M1344.46 40.8151C1340.89 40.8151 1337.99 37.9185 1337.99 34.3453C1337.99 30.7721 1340.89 27.8755 1344.46 27.8755C1348.04 27.8755 1350.93 30.7721 1350.93 34.3453C1350.93 37.9185 1348.04 40.8151 1344.46 40.8151Z" fill="#F2B900"/>
<path d="M1362.37 35.3868C1361.8 31.8597 1364.19 28.5364 1367.72 27.9639C1371.25 27.3914 1374.57 29.7865 1375.14 33.3135C1375.71 36.8405 1373.32 40.1638 1369.79 40.7363C1366.26 41.3088 1362.94 38.9138 1362.37 35.3868Z" fill="#F2B900"/>
<path d="M1337.99 9.64941H1365.22V19.71H1337.99V9.64941Z" fill="#F2B900"/>
<path d="M1337.99 17.2651H1340.91V35.2235H1337.99V17.2651Z" fill="#F2B900"/>
<path d="M1362.3 17.2651H1365.22V35.2235H1362.3V17.2651Z" fill="#F2B900"/>
<path d="M1329.97 0.0185089V49.9792H1280V0.0185089H1329.97Z" fill="#DC5C00"/>
<path d="M1283.08 25.0394C1283.06 13.0795 1292.74 3.36717 1304.71 3.3463C1316.67 3.32543 1326.38 13.0039 1326.4 24.9638C1326.42 36.9237 1316.74 46.6361 1304.78 46.6569C1292.82 46.6778 1283.11 36.9993 1283.08 25.0394Z" fill="#1C223A"/>
<path d="M1291.43 25.0384C1291.41 17.6841 1297.36 11.7056 1304.71 11.6851C1312.07 11.6646 1318.05 17.6097 1318.07 24.9641C1318.09 32.3184 1312.14 38.2969 1304.79 38.3175C1297.43 38.338 1291.45 32.3928 1291.43 25.0384Z" stroke="#F7F7F7" stroke-width="2" stroke-miterlimit="10"/>
<path d="M1295.3 25.072C1295.26 19.8502 1299.46 15.5854 1304.69 15.5462C1309.91 15.507 1314.17 19.7083 1314.21 24.9301C1314.25 30.1519 1310.05 34.4168 1304.83 34.456C1299.61 34.4952 1295.34 30.2938 1295.3 25.072Z" fill="white"/>
<path d="M1304.98 29.7705C1302.37 29.7705 1300.26 27.6342 1300.26 24.999C1300.26 22.3638 1302.37 20.2275 1304.98 20.2275C1307.59 20.2275 1309.71 22.3638 1309.71 24.999C1309.71 27.6342 1307.59 29.7705 1304.98 29.7705Z" fill="#D6007D"/>
<path d="M1579.13 0.0300331V49.97H1529.52V0.0300331H1579.13Z" fill="#6CD4FF"/>
<path d="M1564.35 4.24219H1575.8V7.7405H1564.35V4.24219Z" fill="white"/>
<path d="M1564.35 10.5205H1575.8V14.0188H1564.35V10.5205Z" fill="white"/>
<path d="M1564.35 16.8008H1575.8V20.2991H1564.35V16.8008Z" fill="white"/>
<path d="M1564.35 23.0786H1575.8V26.5769H1564.35V23.0786Z" fill="white"/>
<path d="M1564.35 29.3567H1575.8V32.855H1564.35V29.3567Z" fill="white"/>
<path d="M1564.35 35.6348H1575.8V39.1331H1564.35V35.6348Z" fill="white"/>
<path d="M1564.35 41.9126H1575.8V45.4109H1564.35V41.9126Z" fill="white"/>
<path d="M1548.38 35.6348H1559.82V39.1331H1548.38V35.6348Z" fill="white"/>
<path d="M1548.38 41.9126H1559.82V45.4109H1548.38V41.9126Z" fill="white"/>
<path d="M1532.85 23.0786H1544.3V26.5769H1532.85V23.0786Z" fill="white"/>
<path d="M1532.85 29.3567H1544.3V32.855H1532.85V29.3567Z" fill="white"/>
<path d="M1532.85 35.6348H1544.3V39.1331H1532.85V35.6348Z" fill="white"/>
<path d="M1532.85 41.9126H1544.3V45.4109H1532.85V41.9126Z" fill="white"/>
<path d="M1628.74 0.0278473V49.9678H1579.13V0.0278473H1628.74Z" fill="#F2B900"/>
<path d="M1586.11 43.8955L1588.6 45.3488L1594.61 34.8216L1592.12 33.3682L1586.11 43.8955Z" fill="#E4007F"/>
<path d="M1583.34 46.0489C1583.34 47.701 1584.67 49.0412 1586.3 49.0412C1587.94 49.0412 1589.26 47.701 1589.26 46.0489C1589.26 44.3968 1587.94 43.0566 1586.3 43.0566C1584.67 43.0566 1583.34 44.3968 1583.34 46.0489Z" fill="white"/>
<path d="M1622.21 43.8955L1619.72 45.3488L1613.71 34.8216L1616.2 33.3682L1622.21 43.8955Z" fill="#E4007F"/>
<path d="M1624.98 46.0489C1624.98 47.701 1623.65 49.0412 1622.02 49.0412C1620.38 49.0412 1619.06 47.701 1619.06 46.0489C1619.06 44.3968 1620.38 43.0566 1622.02 43.0566C1623.65 43.0566 1624.98 44.3968 1624.98 46.0489Z" fill="white"/>
<path d="M1604.16 41.2057C1594.03 41.2057 1585.81 32.9016 1585.81 22.6581C1585.81 12.4146 1594.03 4.1106 1604.16 4.1106C1614.29 4.1106 1622.51 12.4146 1622.51 22.6581C1622.51 32.9016 1614.29 41.2057 1604.16 41.2057Z" fill="white"/>
<path d="M1604.16 37.4279C1597.07 37.4279 1591.16 32.3191 1589.83 25.542H1618.49C1617.17 32.3168 1611.25 37.4279 1604.16 37.4279H1604.16Z" fill="#141D36"/>
<path d="M1604.16 7.88867C1611.2 7.88867 1617.07 12.9189 1618.46 19.6152H1589.86C1591.25 12.9189 1597.12 7.88867 1604.16 7.88867Z" fill="#141D36"/>
<path d="M1589.86 19.6128H1618.46C1618.66 20.5948 1618.77 21.6138 1618.77 22.6559C1618.77 23.6426 1618.67 24.6084 1618.49 25.5419H1589.83C1589.65 24.6084 1589.55 23.6449 1589.55 22.6559C1589.55 21.6115 1589.66 20.5948 1589.86 19.6128H1589.86Z" fill="#E4007F"/>
<path d="M2127.74 0H2177.75V50H2127.74V0Z" fill="#E86600"/>
<path d="M2130.24 24.8947L2138.68 29.4975L2134.47 38.1439L2144.01 36.9031L2145.69 46.3744L2152.68 39.7591L2159.6 46.4391L2161.36 36.984L2170.89 38.3149L2166.77 29.6292L2175.25 25.105L2166.81 20.5022L2171.01 11.8558L2161.47 13.0966L2159.8 3.62524L2152.81 10.2406L2145.89 3.56055L2144.13 13.0157L2134.6 11.6848L2138.72 20.3705L2130.24 24.8947Z" fill="white"/>
<path d="M2227.75 0H2278V50H2227.75V0Z" fill="white"/>
<path d="M2177.75 0H2227.75V50H2177.75V0Z" fill="#E4007F"/>
<path d="M2231.47 18.8803V12.0108C2230.55 11.4262 2229.95 10.4026 2229.95 9.23572C2229.95 7.41724 2231.42 5.94305 2233.24 5.94305C2235.06 5.94305 2236.53 7.41724 2236.53 9.23572C2236.53 10.4812 2235.84 11.5648 2234.82 12.124V18.8803H2255.5L2270.04 5.47168V41.1827L2255.5 27.6331V27.915H2249C2249.72 29.3776 2250.11 31.0181 2250.11 32.7488C2250.11 38.8674 2245.14 43.8468 2239.01 43.8468H2227.75V40.4964H2239.01C2243.29 40.4964 2246.76 37.0212 2246.76 32.7511C2246.76 30.9234 2246.12 29.2436 2245.06 27.9173H2227.75V18.8827H2231.47L2231.47 18.8803Z" fill="#6CD4FF"/>
<path d="M2177.75 18.8802H2210.2V12.1238C2209.18 11.5647 2208.49 10.481 2208.49 9.23554C2208.49 7.41706 2209.96 5.94287 2211.78 5.94287C2213.6 5.94287 2215.08 7.41706 2215.08 9.23554C2215.08 10.4024 2214.47 11.426 2213.55 12.0106V18.8825H2220.83V12.0684C2219.87 11.4953 2219.22 10.444 2219.22 9.23554C2219.22 7.41706 2220.69 5.94287 2222.51 5.94287C2224.33 5.94287 2225.8 7.41706 2225.8 9.23554C2225.8 10.4417 2225.15 11.493 2224.19 12.0661V18.8802H2227.75V27.9656H2198.13C2197.09 29.285 2196.47 30.944 2196.47 32.7486C2196.47 37.0187 2199.94 40.4939 2204.21 40.4939H2227.75V43.8443H2204.21C2198.09 43.8443 2193.11 38.8672 2193.11 32.7463C2193.11 31.0341 2193.51 29.4121 2194.2 27.9633H2177.74V18.8778L2177.75 18.8802Z" fill="#141D36"/>
<path d="M2028.52 0.0207062V49.9814H1978.55V0.0207062H2028.52Z" fill="#F2B900"/>
<path d="M1978.55 18.9795H2028.52V31.5586H1978.55V18.9795Z" fill="#E86600"/>
<path d="M2003.54 12.7226C2001.75 12.7226 2000.31 11.2794 2000.31 9.49923C2000.31 7.71902 2001.75 6.27588 2003.54 6.27588C2005.32 6.27588 2006.76 7.71902 2006.76 9.49923C2006.76 11.2794 2005.32 12.7226 2003.54 12.7226Z" fill="#E86600"/>
<path d="M2016.98 12.7226C2015.2 12.7226 2013.75 11.2794 2013.75 9.49923C2013.75 7.71902 2015.2 6.27588 2016.98 6.27588C2018.76 6.27588 2020.2 7.71902 2020.2 9.49923C2020.2 11.2794 2018.76 12.7226 2016.98 12.7226Z" fill="#E86600"/>
<path d="M1990.09 12.7226C1988.31 12.7226 1986.87 11.2794 1986.87 9.49923C1986.87 7.71902 1988.31 6.27588 1990.09 6.27588C1991.87 6.27588 1993.32 7.71902 1993.32 9.49923C1993.32 11.2794 1991.87 12.7226 1990.09 12.7226Z" fill="#E86600"/>
<path d="M2003.02 44.2114C2001.26 43.9262 2000.07 42.2705 2000.35 40.5133C2000.64 38.7561 2002.3 37.5628 2004.05 37.848C2005.81 38.1333 2007 39.789 2006.72 41.5462C2006.43 43.3034 2004.78 44.4967 2003.02 44.2114Z" fill="#E86600"/>
<path d="M2013.74 41.2763C2013.61 39.5006 2014.95 37.9587 2016.73 37.8323C2018.5 37.706 2020.04 39.043 2020.17 40.8187C2020.3 42.5944 2018.96 44.1364 2017.18 44.2627C2015.41 44.3891 2013.87 43.052 2013.74 41.2763Z" fill="#E86600"/>
<path d="M1990.05 44.2462C1988.27 44.2254 1986.85 42.7655 1986.87 40.9854C1986.89 39.2053 1988.35 37.7791 1990.13 37.8C1991.91 37.8208 1993.33 39.2807 1993.31 41.0608C1993.29 42.8409 1991.83 44.267 1990.05 44.2462Z" fill="#E86600"/>
<path d="M1978.55 49.9814L1928.58 49.9814V0.0207253L1978.55 0.0207253V49.9814Z" fill="white"/>
<path d="M1928.58 0.0185356V49.9792H1878.62V0.0185356H1928.58Z" fill="white"/>
<path d="M1958.28 0.0185547H1968.76V36.5221H1958.28V0.0185547Z" fill="#6CD4FF"/>
<path d="M1938.38 0.0185547H1948.86V36.5221H1938.38V0.0185547Z" fill="#6CD4FF"/>
<path d="M1908.21 0.0185547H1918.69V36.5221H1908.21V0.0185547Z" fill="#6CD4FF"/>
<path d="M1888.3 0.0185547H1898.78V36.5221H1888.3V0.0185547Z" fill="#6CD4FF"/>
<path d="M1878.61 0.0207329V49.9814H1828.65V0.0207329H1878.61Z" fill="#E4007F"/>
<path d="M1843.46 40.8151C1839.89 40.8151 1836.99 37.9185 1836.99 34.3453C1836.99 30.7721 1839.89 27.8755 1843.46 27.8755C1847.04 27.8755 1849.93 30.7721 1849.93 34.3453C1849.93 37.9185 1847.04 40.8151 1843.46 40.8151Z" fill="#F2B900"/>
<path d="M1861.37 35.3868C1860.8 31.8597 1863.19 28.5364 1866.72 27.9639C1870.25 27.3914 1873.57 29.7865 1874.14 33.3135C1874.71 36.8405 1872.32 40.1638 1868.79 40.7363C1865.26 41.3088 1861.94 38.9138 1861.37 35.3868Z" fill="#F2B900"/>
<path d="M1836.99 9.64941H1864.22V19.71H1836.99V9.64941Z" fill="#F2B900"/>
<path d="M1836.99 17.2651H1839.91V35.2235H1836.99V17.2651Z" fill="#F2B900"/>
<path d="M1861.3 17.2651H1864.22V35.2235H1861.3V17.2651Z" fill="#F2B900"/>
<path d="M1828.97 0.0185089V49.9792H1779V0.0185089H1828.97Z" fill="#DC5C00"/>
<path d="M1782.08 25.0394C1782.06 13.0795 1791.74 3.36717 1803.71 3.3463C1815.67 3.32543 1825.38 13.0039 1825.4 24.9638C1825.42 36.9237 1815.74 46.6361 1803.78 46.6569C1791.82 46.6778 1782.11 36.9993 1782.08 25.0394Z" fill="#1C223A"/>
<path d="M1790.43 25.0384C1790.41 17.6841 1796.36 11.7056 1803.71 11.6851C1811.07 11.6646 1817.05 17.6097 1817.07 24.9641C1817.09 32.3184 1811.14 38.2969 1803.79 38.3175C1796.43 38.338 1790.45 32.3928 1790.43 25.0384Z" stroke="#F7F7F7" stroke-width="2" stroke-miterlimit="10"/>
<path d="M1794.3 25.072C1794.26 19.8502 1798.46 15.5854 1803.69 15.5462C1808.91 15.507 1813.17 19.7083 1813.21 24.9301C1813.25 30.1519 1809.05 34.4168 1803.83 34.456C1798.61 34.4952 1794.34 30.2938 1794.3 25.072Z" fill="white"/>
<path d="M1803.98 29.7705C1801.37 29.7705 1799.26 27.6342 1799.26 24.999C1799.26 22.3638 1801.37 20.2275 1803.98 20.2275C1806.59 20.2275 1808.71 22.3638 1808.71 24.999C1808.71 27.6342 1806.59 29.7705 1803.98 29.7705Z" fill="#D6007D"/>
<path d="M2078.13 0.0300331V49.97H2028.52V0.0300331H2078.13Z" fill="#6CD4FF"/>
<path d="M2063.35 4.24219H2074.8V7.7405H2063.35V4.24219Z" fill="white"/>
<path d="M2063.35 10.5205H2074.8V14.0188H2063.35V10.5205Z" fill="white"/>
<path d="M2063.35 16.8008H2074.8V20.2991H2063.35V16.8008Z" fill="white"/>
<path d="M2063.35 23.0786H2074.8V26.5769H2063.35V23.0786Z" fill="white"/>
<path d="M2063.35 29.3567H2074.8V32.855H2063.35V29.3567Z" fill="white"/>
<path d="M2063.35 35.6348H2074.8V39.1331H2063.35V35.6348Z" fill="white"/>
<path d="M2063.35 41.9126H2074.8V45.4109H2063.35V41.9126Z" fill="white"/>
<path d="M2047.38 35.6348H2058.82V39.1331H2047.38V35.6348Z" fill="white"/>
<path d="M2047.38 41.9126H2058.82V45.4109H2047.38V41.9126Z" fill="white"/>
<path d="M2031.85 23.0786H2043.3V26.5769H2031.85V23.0786Z" fill="white"/>
<path d="M2031.85 29.3567H2043.3V32.855H2031.85V29.3567Z" fill="white"/>
<path d="M2031.85 35.6348H2043.3V39.1331H2031.85V35.6348Z" fill="white"/>
<path d="M2031.85 41.9126H2043.3V45.4109H2031.85V41.9126Z" fill="white"/>
<path d="M2127.74 0.0278473V49.9678H2078.13V0.0278473H2127.74Z" fill="#F2B900"/>
<path d="M2085.11 43.8955L2087.6 45.3488L2093.61 34.8216L2091.12 33.3682L2085.11 43.8955Z" fill="#E4007F"/>
<path d="M2082.34 46.0489C2082.34 47.701 2083.67 49.0412 2085.3 49.0412C2086.94 49.0412 2088.26 47.701 2088.26 46.0489C2088.26 44.3968 2086.94 43.0566 2085.3 43.0566C2083.67 43.0566 2082.34 44.3968 2082.34 46.0489Z" fill="white"/>
<path d="M2121.21 43.8955L2118.72 45.3488L2112.71 34.8216L2115.2 33.3682L2121.21 43.8955Z" fill="#E4007F"/>
<path d="M2123.98 46.0489C2123.98 47.701 2122.65 49.0412 2121.02 49.0412C2119.38 49.0412 2118.06 47.701 2118.06 46.0489C2118.06 44.3968 2119.38 43.0566 2121.02 43.0566C2122.65 43.0566 2123.98 44.3968 2123.98 46.0489Z" fill="white"/>
<path d="M2103.16 41.2057C2093.03 41.2057 2084.81 32.9016 2084.81 22.6581C2084.81 12.4146 2093.03 4.1106 2103.16 4.1106C2113.29 4.1106 2121.51 12.4146 2121.51 22.6581C2121.51 32.9016 2113.29 41.2057 2103.16 41.2057Z" fill="white"/>
<path d="M2103.16 37.4279C2096.07 37.4279 2090.16 32.3191 2088.83 25.542H2117.49C2116.17 32.3168 2110.25 37.4279 2103.16 37.4279H2103.16Z" fill="#141D36"/>
<path d="M2103.16 7.88867C2110.2 7.88867 2116.07 12.9189 2117.46 19.6152H2088.86C2090.25 12.9189 2096.12 7.88867 2103.16 7.88867Z" fill="#141D36"/>
<path d="M2088.86 19.6128H2117.46C2117.66 20.5948 2117.77 21.6138 2117.77 22.6559C2117.77 23.6426 2117.67 24.6084 2117.49 25.5419H2088.83C2088.65 24.6084 2088.55 23.6449 2088.55 22.6559C2088.55 21.6115 2088.66 20.5948 2088.86 19.6128H2088.86Z" fill="#E4007F"/>
<path d="M2527.52 0.0207062V49.9814H2477.55V0.0207062H2527.52Z" fill="#F2B900"/>
<path d="M2477.55 18.9795H2527.52V31.5586H2477.55V18.9795Z" fill="#E86600"/>
<path d="M2502.54 12.7226C2500.75 12.7226 2499.31 11.2794 2499.31 9.49923C2499.31 7.71902 2500.75 6.27588 2502.54 6.27588C2504.32 6.27588 2505.76 7.71902 2505.76 9.49923C2505.76 11.2794 2504.32 12.7226 2502.54 12.7226Z" fill="#E86600"/>
<path d="M2515.98 12.7226C2514.2 12.7226 2512.75 11.2794 2512.75 9.49923C2512.75 7.71902 2514.2 6.27588 2515.98 6.27588C2517.76 6.27588 2519.2 7.71902 2519.2 9.49923C2519.2 11.2794 2517.76 12.7226 2515.98 12.7226Z" fill="#E86600"/>
<path d="M2489.09 12.7226C2487.31 12.7226 2485.87 11.2794 2485.87 9.49923C2485.87 7.71902 2487.31 6.27588 2489.09 6.27588C2490.87 6.27588 2492.32 7.71902 2492.32 9.49923C2492.32 11.2794 2490.87 12.7226 2489.09 12.7226Z" fill="#E86600"/>
<path d="M2502.02 44.2114C2500.26 43.9262 2499.07 42.2705 2499.35 40.5133C2499.64 38.7561 2501.3 37.5628 2503.05 37.848C2504.81 38.1333 2506 39.789 2505.72 41.5462C2505.43 43.3034 2503.78 44.4967 2502.02 44.2114Z" fill="#E86600"/>
<path d="M2512.74 41.2763C2512.61 39.5006 2513.95 37.9587 2515.73 37.8323C2517.5 37.706 2519.04 39.043 2519.17 40.8187C2519.3 42.5944 2517.96 44.1364 2516.18 44.2627C2514.41 44.3891 2512.87 43.052 2512.74 41.2763Z" fill="#E86600"/>
<path d="M2489.05 44.2462C2487.27 44.2254 2485.84 42.7655 2485.87 40.9854C2485.89 39.2053 2487.35 37.7791 2489.13 37.8C2490.91 37.8208 2492.33 39.2807 2492.31 41.0608C2492.29 42.8409 2490.83 44.267 2489.05 44.2462Z" fill="#E86600"/>
<path d="M2477.55 49.9814L2427.58 49.9814V0.0207253L2477.55 0.0207253V49.9814Z" fill="white"/>
<path d="M2427.58 0.0185356V49.9792H2377.62V0.0185356H2427.58Z" fill="white"/>
<path d="M2457.28 0.0185547H2467.76V36.5221H2457.28V0.0185547Z" fill="#6CD4FF"/>
<path d="M2437.38 0.0185547H2447.86V36.5221H2437.38V0.0185547Z" fill="#6CD4FF"/>
<path d="M2407.21 0.0185547H2417.69V36.5221H2407.21V0.0185547Z" fill="#6CD4FF"/>
<path d="M2387.3 0.0185547H2397.78V36.5221H2387.3V0.0185547Z" fill="#6CD4FF"/>
<path d="M2377.61 0.0207329V49.9814H2327.65V0.0207329H2377.61Z" fill="#E4007F"/>
<path d="M2342.46 40.8151C2338.89 40.8151 2335.99 37.9185 2335.99 34.3453C2335.99 30.7721 2338.89 27.8755 2342.46 27.8755C2346.04 27.8755 2348.93 30.7721 2348.93 34.3453C2348.93 37.9185 2346.04 40.8151 2342.46 40.8151Z" fill="#F2B900"/>
<path d="M2360.37 35.3868C2359.8 31.8597 2362.19 28.5364 2365.72 27.9639C2369.25 27.3914 2372.57 29.7865 2373.14 33.3135C2373.71 36.8405 2371.32 40.1638 2367.79 40.7363C2364.26 41.3088 2360.94 38.9138 2360.37 35.3868Z" fill="#F2B900"/>
<path d="M2335.99 9.64941H2363.22V19.71H2335.99V9.64941Z" fill="#F2B900"/>
<path d="M2335.99 17.2651H2338.91V35.2235H2335.99V17.2651Z" fill="#F2B900"/>
<path d="M2360.3 17.2651H2363.22V35.2235H2360.3V17.2651Z" fill="#F2B900"/>
<path d="M2327.97 0.0185089V49.9792H2278V0.0185089H2327.97Z" fill="#DC5C00"/>
<path d="M2281.08 25.0394C2281.06 13.0795 2290.74 3.36717 2302.71 3.3463C2314.67 3.32543 2324.38 13.0039 2324.4 24.9638C2324.42 36.9237 2314.74 46.6361 2302.78 46.6569C2290.82 46.6778 2281.11 36.9993 2281.08 25.0394Z" fill="#1C223A"/>
<path d="M2289.43 25.0384C2289.41 17.6841 2295.36 11.7056 2302.71 11.6851C2310.07 11.6646 2316.05 17.6097 2316.07 24.9641C2316.09 32.3184 2310.14 38.2969 2302.79 38.3175C2295.43 38.338 2289.45 32.3928 2289.43 25.0384Z" stroke="#F7F7F7" stroke-width="2" stroke-miterlimit="10"/>
<path d="M2293.3 25.072C2293.26 19.8502 2297.46 15.5854 2302.69 15.5462C2307.91 15.507 2312.17 19.7083 2312.21 24.9301C2312.25 30.1519 2308.05 34.4168 2302.83 34.456C2297.61 34.4952 2293.34 30.2938 2293.3 25.072Z" fill="white"/>
<path d="M2302.98 29.7705C2300.37 29.7705 2298.26 27.6342 2298.26 24.999C2298.26 22.3638 2300.37 20.2275 2302.98 20.2275C2305.59 20.2275 2307.71 22.3638 2307.71 24.999C2307.71 27.6342 2305.59 29.7705 2302.98 29.7705Z" fill="#D6007D"/>
<path d="M2577.13 0.0300331V49.97H2527.52V0.0300331H2577.13Z" fill="#6CD4FF"/>
<path d="M2546.38 35.6348H2557.82V39.1331H2546.38V35.6348Z" fill="white"/>
<path d="M2546.38 41.9126H2557.82V45.4109H2546.38V41.9126Z" fill="white"/>
<path d="M2530.85 23.0786H2542.3V26.5769H2530.85V23.0786Z" fill="white"/>
<path d="M2530.85 29.3567H2542.3V32.855H2530.85V29.3567Z" fill="white"/>
<path d="M2530.85 35.6348H2542.3V39.1331H2530.85V35.6348Z" fill="white"/>
<path d="M2530.85 41.9126H2542.3V45.4109H2530.85V41.9126Z" fill="white"/>
</svg>
