<svg width="588" height="616" viewBox="0 0 588 616" fill="none" xmlns="http://www.w3.org/2000/svg">
<mask id="mask0_1_31" style="mask-type:luminance" maskUnits="userSpaceOnUse" x="0" y="0" width="588" height="616">
<path d="M588 0H0.278076V615.379H588V0Z" fill="white"/>
</mask>
<g mask="url(#mask0_1_31)">
<mask id="mask1_1_31" style="mask-type:luminance" maskUnits="userSpaceOnUse" x="-18" y="0" width="606" height="308">
<path d="M588 0.678711H-17.519V307.71H588V0.678711Z" fill="white"/>
</mask>
<g mask="url(#mask1_1_31)">
<path d="M284.39 682.369C451.95 682.369 587.79 544.619 587.79 374.697C587.79 204.777 451.95 67.0293 284.39 67.0293C116.834 67.0293 -19 204.777 -19 374.697C-19 544.619 116.834 682.369 284.39 682.369Z" fill="#0A1732"/>
<path d="M284.39 548.229C378.91 548.229 455.54 470.539 455.54 374.697C455.54 278.859 378.91 201.167 284.39 201.167C189.874 201.167 113.251 278.859 113.251 374.697C113.251 470.539 189.874 548.229 284.39 548.229Z" stroke="#F9F9F9" stroke-miterlimit="10"/>
<path d="M284.39 607.149C410.98 607.149 513.6 503.079 513.6 374.698C513.6 246.32 410.98 142.249 284.39 142.249C157.807 142.249 55.187 246.32 55.187 374.698C55.187 503.079 157.807 607.149 284.39 607.149Z" stroke="#F9F9F9" stroke-miterlimit="10"/>
<path d="M284.39 509.05C357.55 509.05 416.86 448.9 416.86 374.698C416.86 300.499 357.55 240.348 284.39 240.348C211.237 240.348 151.931 300.499 151.931 374.698C151.931 448.9 211.237 509.05 284.39 509.05Z" fill="white"/>
<path d="M281.52 442.489C318.07 442.489 347.71 412.139 347.71 374.697C347.71 337.258 318.07 306.907 281.52 306.907C244.961 306.907 215.327 337.258 215.327 374.697C215.327 412.139 244.961 442.489 281.52 442.489Z" fill="#F20082"/>
</g>
<path d="M284.56 307.922H-17.561V613.3H284.56V307.922Z" fill="#F47000"/>
<path d="M-17.604 307.922C-17.604 477.12 117.694 614.27 284.56 614.27V307.922H-17.604Z" fill="white"/>
<path d="M151.551 306.903C151.551 381.4 211.138 441.809 284.61 441.809V306.903H151.551Z" fill="#54D3FF"/>
<path d="M284.61 306.945V613.299H588V306.945H284.61Z" fill="#F9BE00"/>
<path d="M545.34 576.03L530.11 584.94L493.33 520.34L508.56 511.42L545.34 576.03Z" fill="#F20082"/>
<path d="M562.23 589.23C562.23 599.38 554.1 607.61 544.11 607.61C534.13 607.61 526 599.38 526 589.23C526 579.08 534.13 570.89 544.11 570.89C554.1 570.89 562.23 579.13 562.23 589.23Z" fill="white"/>
<path d="M324.51 576.03L339.75 584.94L376.53 520.34L361.29 511.42L324.51 576.03Z" fill="#F20082"/>
<path d="M307.63 589.23C307.63 599.38 315.75 607.61 325.74 607.61C335.73 607.61 343.85 599.38 343.85 589.23C343.85 579.08 335.73 570.89 325.74 570.89C315.75 570.89 307.63 579.13 307.63 589.23Z" fill="white"/>
<path d="M434.93 559.469C496.89 559.469 547.12 508.539 547.12 445.709C547.12 382.88 496.89 331.947 434.93 331.947C372.97 331.947 322.74 382.88 322.74 445.709C322.74 508.539 372.97 559.469 434.93 559.469Z" fill="white"/>
<path d="M434.93 536.34C478.31 536.34 514.45 505.01 522.57 463.41H347.28C355.41 504.97 391.55 536.34 434.93 536.34Z" fill="#0A1732"/>
<path d="M434.93 355.125C391.89 355.125 355.96 385.986 347.49 427.08H522.4C513.9 385.986 478.01 355.125 434.97 355.125H434.93Z" fill="#0A1732"/>
<path d="M522.36 427.029H347.45C346.22 433.059 345.55 439.299 345.55 445.709C345.55 451.779 346.14 457.679 347.28 463.409H522.57C523.67 457.679 524.31 451.779 524.31 445.709C524.31 439.299 523.63 433.059 522.4 427.029H522.36Z" fill="#F20082"/>
</g>
</svg>
