<svg width="39" height="39" viewBox="0 0 39 39" fill="none" xmlns="http://www.w3.org/2000/svg">
<circle cx="19.5" cy="19.5" r="19.5" fill="#9346C6"/>
<path d="M15.1871 32C14.769 31.9038 14.3437 31.8316 13.9342 31.7057C13.1648 31.4676 12.4891 31.0539 11.9387 30.4517C10.566 28.9499 10.7141 26.8691 12.2828 25.5205C13.8751 24.1518 16.3857 23.9144 18.2986 24.9504C18.3679 24.9881 18.438 25.0234 18.5506 25.0819C18.5506 24.9536 18.5506 24.8534 18.5506 24.7539C18.5506 19.2214 18.5506 13.6888 18.553 8.15625C18.553 7.98707 18.5624 7.81147 18.6089 7.65111C18.7215 7.26142 19.1011 6.99682 19.5011 7.00003C19.8996 7.00324 20.2949 7.26623 20.3887 7.65913C20.647 8.74479 21.31 9.57628 22.0787 10.2955C22.7496 10.9241 23.5293 11.4365 24.279 11.9753C25.1161 12.5767 25.9595 13.1692 26.6013 13.9975C27.6857 15.3959 28.1488 16.9843 27.9582 18.7619C27.7669 20.5428 27.1912 22.1761 26.1493 23.6282C26.0461 23.7725 25.9375 23.916 25.8123 24.0395C25.465 24.3843 24.9113 24.3923 24.5483 24.0692C24.1892 23.7501 24.1199 23.212 24.3869 22.8087C24.3955 22.7951 24.4034 22.7799 24.4152 22.7694C24.8413 22.3846 24.809 21.946 24.6467 21.4312C23.9813 19.3168 22.6118 17.8847 20.632 17.0188C20.5958 17.0027 20.5572 16.9891 20.5194 16.9779C20.5052 16.9739 20.4887 16.9803 20.4493 16.9835V17.293C20.4493 20.7673 20.4209 24.2416 20.4603 27.7151C20.4816 29.5777 19.5941 30.774 18.008 31.5013C17.5072 31.7306 16.9394 31.8084 16.4023 31.9559C16.3495 31.9703 16.2967 31.9848 16.2432 32H15.1879H15.1871Z" fill="white"/>
</svg>
